<svg xmlns="http://www.w3.org/2000/svg" xmlns:v="https://svgstorm.com"
viewBox = "0 0 800 805"
width="800"
height="805">
<g fill="None" fill-opacity="0.0" stroke="#000000" stroke-opacity="0.00" stroke-width="0.3"><path d="
M 0.00 805.00 
L 800.00 805.00
L 800.00 0.00
L 0.00 0.00
L 0.00 805.00
M 411.00 35.00 
C 413.00 35.00 415.00 35.00 417.00 35.00
C 418.67 35.00 420.33 35.00 422.00 35.00
C 441.39 35.00 460.50 39.23 479.00 43.00
C 481.73 43.56 484.69 44.43 487.00 45.00
C 488.90 45.27 490.23 45.60 492.00 46.00
C 495.35 46.76 499.39 46.88 502.00 49.00
C 502.49 49.08 503.00 49.00 503.00 49.00
C 506.43 49.13 509.19 51.09 512.00 52.00
C 517.20 53.19 522.42 54.81 527.00 57.00
C 529.22 57.79 531.74 58.11 534.00 59.00
C 536.10 59.82 538.27 61.06 540.00 62.00
C 544.26 63.73 548.76 65.02 553.00 67.00
C 554.25 67.59 555.04 68.30 556.00 69.00
C 561.96 72.29 568.82 74.80 575.00 78.00
C 575.33 78.17 575.77 78.72 576.00 79.00
C 578.89 80.03 581.21 81.61 584.00 83.00
C 584.33 83.17 584.73 83.87 585.00 84.00
C 589.60 86.29 581.26 95.56 579.00 99.00
C 578.03 100.47 577.04 101.81 576.00 103.00
C 572.41 108.12 569.45 113.75 566.00 119.00
C 565.03 120.47 564.04 121.81 563.00 123.00
C 559.41 128.12 556.45 133.75 553.00 139.00
C 552.03 140.47 551.04 141.81 550.00 143.00
C 546.39 148.15 543.64 153.83 540.00 159.00
C 539.79 159.30 539.29 159.77 539.00 160.00
C 535.61 165.34 532.48 170.71 529.00 176.00
C 528.03 177.47 527.04 178.81 526.00 180.00
C 522.41 185.12 519.45 190.75 516.00 196.00
C 515.03 197.47 514.04 198.81 513.00 200.00
C 509.41 205.12 506.45 210.75 503.00 216.00
C 502.03 217.47 501.04 218.81 500.00 220.00
C 492.04 231.35 484.69 243.68 477.00 255.00
C 476.12 256.63 475.35 260.51 473.00 261.00
C 470.39 261.55 466.91 257.94 465.00 257.00
C 450.67 251.84 436.37 245.81 421.00 244.00
C 418.52 243.71 415.93 243.42 414.00 243.00
C 413.00 243.03 412.00 243.00 411.00 243.00
C 403.67 243.00 396.33 243.00 389.00 243.00
C 388.50 243.00 387.50 243.03 387.00 243.00
C 384.92 243.89 382.69 244.17 380.00 244.00
C 379.50 243.97 378.50 244.02 378.00 244.00
C 375.33 244.77 372.05 245.30 369.00 246.00
C 366.09 246.67 362.94 247.25 360.00 248.00
C 357.06 249.14 353.16 249.80 350.00 251.00
C 342.84 253.71 329.64 265.12 324.25 256.75 C 318.85 248.39 313.67 240.08 308.23 231.77 C 302.79 223.46 297.51 215.20 292.08 206.92 C 286.66 198.64 281.36 190.30 276.00 182.00
C 274.93 180.34 274.10 178.56 273.00 177.00
C 272.00 175.85 270.90 174.37 270.00 173.00
C 268.48 170.69 267.33 168.19 266.00 166.00
C 249.35 138.54 228.10 112.75 214.00 84.00
C 226.42 78.55 238.26 70.92 251.00 66.00
C 255.03 64.26 258.73 62.00 263.00 61.00
C 263.47 60.89 264.00 61.00 264.00 61.00
C 266.10 59.20 268.39 58.96 271.00 58.00
C 282.32 52.34 295.31 48.88 308.02 46.02 C 320.74 43.17 336.53 37.48 350.00 38.00
C 350.50 38.02 351.50 37.97 352.00 38.00
C 353.84 37.26 355.56 36.85 358.00 37.00
C 358.50 37.03 359.50 37.00 360.00 37.00
C 362.66 35.87 365.73 36.00 369.00 36.00
C 369.50 36.00 370.50 36.00 371.00 36.00
C 373.41 34.98 376.00 35.00 379.00 35.00
C 380.67 35.00 382.33 35.00 384.00 35.00
C 386.00 35.00 388.00 35.00 390.00 35.00
C 396.61 34.36 404.46 34.37 411.00 35.00
M 207.00 135.00 
C 208.00 136.15 209.10 137.63 210.00 139.00
C 213.47 144.28 216.42 149.89 220.00 155.00
C 221.00 156.15 222.10 157.63 223.00 159.00
C 233.88 175.55 244.83 192.23 255.00 209.00
C 257.63 213.33 261.17 217.61 264.00 222.00
C 267.68 227.70 271.33 233.30 275.00 239.00
C 276.33 241.06 277.73 242.94 279.00 245.00
C 281.94 249.74 284.98 254.31 288.00 259.00
C 294.49 269.06 304.22 277.96 294.25 286.25 C 284.28 294.54 279.56 302.14 273.00 312.00
C 268.97 318.05 266.49 324.52 262.70 330.70 C 258.90 336.87 258.38 346.60 254.00 352.00
C 253.98 352.50 254.00 353.00 254.00 353.00
C 253.38 356.77 251.75 360.69 251.00 364.00
C 250.74 366.11 250.27 368.07 250.00 370.00
C 249.67 372.40 250.54 374.20 249.00 376.00
C 249.05 376.49 249.00 377.00 249.00 377.00
C 249.00 379.50 250.08 385.54 248.00 387.00
C 243.20 390.36 233.20 385.57 227.00 387.00 C 220.80 388.43 211.81 386.36 205.00 387.00 C 198.19 387.64 190.07 386.71 183.00 387.00 C 175.93 387.29 168.16 386.88 161.00 387.00 C 153.84 387.12 146.14 386.97 139.00 387.00 C 131.86 387.03 125.08 387.06 118.00 387.00 C 110.92 386.94 102.96 387.17 96.00 387.00 C 89.04 386.83 80.59 387.40 74.00 387.00 C 67.41 386.60 57.73 387.89 52.00 387.00 C 46.27 386.11 33.74 389.88 32.00 385.00
C 31.28 382.98 32.77 381.26 33.00 380.00
C 33.00 379.00 33.00 378.00 33.00 377.00
C 33.00 373.42 32.77 369.90 34.00 367.00
C 34.00 366.50 34.03 365.50 34.00 365.00
C 33.83 362.25 34.11 360.10 35.00 358.00
C 34.97 357.50 35.00 356.50 35.00 356.00
C 35.00 354.50 34.63 352.45 35.00 351.00
C 35.14 350.45 35.73 349.49 36.00 349.00
C 36.52 346.89 35.44 345.61 37.00 344.00
C 36.94 343.51 37.00 343.00 37.00 343.00
C 36.74 340.89 37.76 339.38 38.00 338.00
C 38.91 325.10 42.25 310.54 47.00 299.00
C 47.57 297.12 48.54 294.58 49.00 293.00
C 51.51 280.45 56.60 265.89 63.00 255.00
C 63.85 253.06 65.22 250.74 66.00 249.00
C 68.16 242.26 71.56 236.03 75.00 230.00
C 75.83 228.53 77.26 226.41 78.00 225.00
C 89.48 196.10 113.65 171.81 134.00 148.00
C 137.37 144.06 141.11 140.33 145.00 137.00
C 154.00 129.31 161.99 119.95 172.00 114.00
C 176.79 110.43 181.12 104.87 187.00 103.00
C 193.04 114.08 201.11 123.86 207.00 135.00
M 769.00 387.00 
C 755.19 387.04 741.85 386.95 728.00 387.00 C 714.15 387.05 699.91 386.91 686.00 387.00 C 672.09 387.09 657.90 386.81 644.00 387.00 C 630.10 387.19 616.93 386.58 603.00 387.00 C 589.07 387.42 575.01 386.08 561.00 387.00 C 546.99 387.92 551.97 367.94 548.02 357.98 C 544.08 348.01 542.35 337.05 537.08 327.92 C 531.80 318.80 527.38 310.10 520.75 302.25 C 514.12 294.40 508.75 286.18 500.00 281.00
C 535.91 220.89 576.86 162.78 614.00 103.00
C 707.52 167.44 764.52 275.40 769.00 387.00
M 250.00 420.00 
C 252.75 422.57 251.49 429.54 252.98 433.02 C 254.47 436.51 255.73 441.29 257.00 445.00
C 258.01 447.94 258.76 451.12 260.00 454.00
C 261.48 457.43 263.30 460.68 265.00 464.00
C 266.60 467.13 268.16 470.03 270.00 473.00
C 271.03 474.67 271.94 476.35 273.00 478.00
C 276.64 483.64 280.60 488.85 285.00 494.00
C 288.73 498.37 292.45 502.68 296.00 507.00
C 299.80 511.62 306.73 516.48 304.00 522.00
C 302.88 524.27 301.27 526.09 300.00 528.00
C 296.94 532.60 293.97 537.54 291.00 542.00
C 286.60 548.61 282.29 555.55 278.00 562.00
C 276.05 564.92 273.71 568.17 272.00 571.00
C 270.69 573.16 269.46 575.73 268.00 578.00
C 254.39 599.10 240.77 620.04 227.00 641.00
C 226.03 642.47 225.03 643.81 224.00 645.00
C 220.39 650.15 217.65 655.83 214.00 661.00
C 213.79 661.30 213.29 661.78 213.00 662.00
C 210.02 666.70 206.98 671.52 204.00 676.00
C 202.68 677.99 201.22 680.16 200.00 682.00
C 196.52 687.23 193.42 692.70 190.00 698.00
C 188.91 699.68 187.68 701.12 187.00 703.00
C 178.01 698.20 169.44 691.10 162.00 684.00
C 157.33 680.20 152.63 675.96 148.00 672.00
C 146.18 670.44 144.62 668.62 143.00 667.00
C 120.66 644.66 101.90 621.22 86.00 595.00
C 80.99 588.27 76.88 580.58 73.00 573.00
C 71.49 570.05 70.42 566.87 69.00 564.00
C 59.64 549.78 54.86 533.11 49.22 516.78 C 43.58 500.44 38.24 479.67 37.00 462.00
C 36.76 460.63 35.75 459.05 36.00 457.00
C 36.06 456.51 36.00 456.00 36.00 456.00
C 34.71 454.48 34.87 452.16 35.00 450.00
C 35.03 449.50 34.97 448.50 35.00 448.00
C 34.11 445.92 33.83 443.69 34.00 441.00
C 34.03 440.50 34.00 439.50 34.00 439.00
C 32.87 436.34 33.00 433.27 33.00 430.00
C 33.00 428.67 33.00 427.33 33.00 426.00
C 32.83 424.76 31.37 422.96 32.00 421.00
C 32.24 416.83 46.93 419.58 52.00 419.00 C 57.07 418.42 67.69 419.26 74.00 419.00 C 80.31 418.74 89.14 419.11 96.00 419.00 C 102.86 418.89 110.89 419.03 118.00 419.00 C 125.11 418.97 132.80 418.97 140.00 419.00 C 147.20 419.03 154.80 418.89 162.00 419.00 C 169.20 419.11 176.89 418.75 184.00 419.00 C 191.11 419.25 199.13 418.43 206.00 419.00 C 212.87 419.57 221.67 417.73 228.00 419.00 C 234.33 420.27 245.56 415.85 250.00 420.00
M 769.00 419.00 
C 764.48 530.42 707.79 638.88 614.00 703.00
C 574.72 641.40 534.29 580.58 495.00 519.00
C 501.58 511.57 506.55 504.21 513.75 496.75 C 520.95 489.29 525.69 481.15 531.31 472.31 C 536.92 463.46 540.32 454.45 544.32 444.32 C 548.32 434.19 546.75 417.16 561.00 419.00 C 575.25 420.84 587.97 418.19 602.00 419.00 C 616.03 419.81 630.06 418.62 644.00 419.00 C 657.94 419.38 671.08 418.83 685.00 419.00 C 698.92 419.17 713.04 418.91 727.00 419.00 C 740.96 419.09 755.03 418.93 769.00 419.00
M 369.00 602.00 
C 377.53 602.00 385.40 601.80 394.00 602.00 C 402.60 602.20 411.28 601.51 420.00 602.00 C 428.72 602.49 436.01 600.83 445.00 602.00 C 453.99 603.17 461.76 602.00 461.99 592.99 C 462.23 583.98 465.92 581.15 467.78 573.78 C 469.63 566.40 471.53 561.45 475.00 555.00
C 475.78 553.56 476.20 551.51 478.00 551.00
C 483.91 562.15 491.97 571.94 498.00 583.00
C 498.29 583.23 498.79 583.70 499.00 584.00
C 502.66 589.20 505.40 594.86 509.00 600.00
C 510.00 601.15 511.10 602.63 512.00 604.00
C 515.50 609.32 518.62 614.67 522.00 620.00
C 522.29 620.23 522.79 620.70 523.00 621.00
C 526.67 626.21 529.55 631.74 533.00 637.00
C 534.00 638.15 535.10 639.63 536.00 641.00
C 539.47 646.28 542.42 651.89 546.00 657.00
C 547.00 658.15 548.10 659.63 549.00 661.00
C 552.47 666.28 555.42 671.89 559.00 677.00
C 560.00 678.15 561.10 679.63 562.00 681.00
C 565.47 686.28 568.42 691.89 572.00 697.00
C 573.00 698.15 574.10 699.63 575.00 701.00
C 578.49 706.31 582.09 711.39 585.00 717.00
C 586.16 719.23 587.54 719.52 586.00 722.00
C 585.13 723.41 581.34 724.34 580.00 725.00
C 579.77 725.28 579.33 725.83 579.00 726.00
C 569.99 730.67 561.14 734.87 552.00 739.00
C 550.16 740.11 549.19 740.33 547.00 741.00
C 544.19 742.21 541.02 743.77 538.00 745.00
C 534.54 746.89 531.00 747.95 527.00 749.00
C 525.54 749.55 523.71 750.41 522.00 751.00
C 519.00 752.40 515.43 753.96 512.00 755.00
C 510.38 755.49 508.66 755.54 507.00 756.00
C 504.17 756.79 502.00 757.52 499.00 758.00
C 492.94 759.67 486.56 761.66 480.00 763.00
C 458.98 767.28 438.21 771.00 416.00 771.00
C 406.26 771.94 394.67 772.03 385.00 771.00
C 383.33 771.00 381.67 771.00 380.00 771.00
C 375.44 771.00 371.25 770.35 367.00 770.00
C 365.02 769.83 362.99 770.17 361.00 770.00
C 334.88 767.82 307.51 761.65 283.00 753.00
C 281.29 752.39 279.71 751.65 278.00 751.00
C 275.61 750.09 273.09 749.09 271.00 748.00
C 265.40 745.80 258.76 744.83 254.00 741.00
C 253.53 740.89 253.00 741.00 253.00 741.00
C 246.63 739.51 238.60 735.41 232.92 732.08 C 227.25 728.74 218.27 725.78 214.00 721.00
C 213.75 720.72 214.00 720.00 214.00 720.00
C 217.89 709.23 227.23 700.81 232.77 690.77 C 238.31 680.73 245.73 670.72 252.00 661.00
C 255.04 656.28 257.98 651.68 261.00 647.00
C 263.63 642.93 266.23 638.94 269.00 635.00
C 269.21 634.70 269.71 634.22 270.00 634.00
C 271.48 631.75 272.51 629.27 274.00 627.00
C 274.97 625.53 275.96 624.19 277.00 623.00
C 278.10 621.43 278.96 619.61 280.00 618.00
C 294.51 595.52 308.93 571.34 325.00 551.00
C 328.57 558.49 329.77 566.05 333.32 573.68 C 336.87 581.30 336.69 591.29 339.99 599.01 C 343.29 606.72 361.88 599.45 369.00 602.00 Z"/>
</g>
<g fill="None" fill-opacity="0.0" stroke="#EC7321" stroke-opacity="0.23" stroke-width="0.3"><path d="
M 390.00 35.00 
C 397.00 35.00 404.00 35.00 411.00 35.00
C 404.46 34.37 396.61 34.36 390.00 35.00 Z"/>
</g>
<g fill="None" fill-opacity="0.0" stroke="#EC7321" stroke-opacity="0.38" stroke-width="0.3"><path d="
M 371.00 36.00 
C 373.66 36.00 376.34 36.11 379.00 36.00
C 379.04 36.00 379.00 35.00 379.00 35.00
C 376.00 35.00 373.41 34.98 371.00 36.00 Z"/>
</g>
<g fill="None" fill-opacity="0.0" stroke="#E97024" stroke-opacity="0.76" stroke-width="0.3"><path d="
M 379.00 36.00 
C 380.82 35.93 382.84 35.15 384.00 35.00
C 382.33 35.00 380.67 35.00 379.00 35.00
C 379.00 35.00 379.04 36.00 379.00 36.00 Z"/>
</g>
<g fill="None" fill-opacity="0.0" stroke="#E67720" stroke-opacity="1.00" stroke-width="0.3"><path d="
M 379.00 36.00 
C 376.34 36.11 373.66 36.00 371.00 36.00
C 370.50 36.00 369.50 36.00 369.00 36.00
C 366.34 37.13 363.27 37.00 360.00 37.00
C 359.50 37.00 358.50 37.03 358.00 37.00
C 356.16 37.74 354.44 38.15 352.00 38.00
C 351.50 37.97 350.50 38.02 350.00 38.00
C 349.52 38.08 348.12 39.84 347.00 39.00
C 347.00 109.67 347.00 180.33 347.00 251.00
C 348.00 251.00 349.00 251.00 350.00 251.00
C 353.16 249.80 357.06 249.14 360.00 248.00
C 362.61 246.99 365.98 245.69 369.00 245.00
C 371.81 244.36 375.02 243.89 378.00 244.00
C 378.50 244.02 379.50 243.97 380.00 244.00
C 382.08 243.12 384.31 242.83 387.00 243.00
C 387.50 243.03 388.50 243.00 389.00 243.00
C 394.73 240.56 405.25 241.74 411.00 243.00
C 412.00 243.00 413.00 243.03 414.00 243.00
C 416.69 242.93 418.99 243.58 421.00 244.00
C 436.37 245.81 450.67 251.84 465.00 257.00
C 467.70 257.97 471.06 258.86 473.00 261.00
C 475.35 260.51 476.12 256.63 477.00 255.00
C 483.37 243.19 491.32 229.98 500.00 220.00
C 501.04 218.81 502.03 217.47 503.00 216.00
C 505.27 211.51 508.91 204.70 513.00 200.00
C 514.04 198.81 515.03 197.47 516.00 196.00
C 518.30 191.45 521.86 184.76 526.00 180.00
C 527.04 178.81 528.03 177.47 529.00 176.00
C 531.09 171.88 534.24 163.72 539.00 160.00
C 539.29 159.77 539.79 159.30 540.00 159.00
C 539.76 154.96 546.89 146.58 550.00 143.00
C 551.04 141.81 552.03 140.47 553.00 139.00
C 555.27 134.51 558.91 127.70 563.00 123.00
C 564.04 121.81 565.03 120.47 566.00 119.00
C 568.27 114.51 571.91 107.70 576.00 103.00
C 577.04 101.81 578.03 100.47 579.00 99.00
C 580.05 96.92 586.91 86.96 585.00 84.00
C 584.73 83.87 584.33 83.17 584.00 83.00
C 581.75 83.13 577.95 81.35 576.00 79.00
C 575.77 78.72 575.33 78.17 575.00 78.00
C 570.32 78.27 560.30 72.15 556.00 69.00
C 555.04 68.30 554.25 67.59 553.00 67.00
C 549.45 65.86 544.03 64.20 540.00 62.00
C 538.27 61.06 536.10 59.82 534.00 59.00
C 532.42 58.58 529.31 58.11 527.00 57.00
C 522.42 54.81 517.20 53.19 512.00 52.00
C 508.93 51.30 505.38 50.94 503.00 49.00
C 503.00 49.00 502.49 49.08 502.00 49.00
C 498.36 48.40 495.13 47.11 492.00 46.00
C 490.23 45.60 488.90 45.27 487.00 45.00
C 483.99 44.58 481.51 43.81 479.00 43.00
C 460.50 39.23 441.39 35.00 422.00 35.00
C 420.50 35.13 418.45 35.13 417.00 35.00
C 415.00 35.00 413.00 35.00 411.00 35.00
C 404.00 35.00 397.00 35.00 390.00 35.00
C 388.00 35.00 386.00 35.00 384.00 35.00
C 382.84 35.15 380.82 35.93 379.00 36.00 Z"/>
</g>
<g fill="None" fill-opacity="0.0" stroke="#EC7321" stroke-opacity="0.76" stroke-width="0.3"><path d="
M 422.00 35.00 
C 420.33 35.00 418.67 35.00 417.00 35.00
C 418.45 35.13 420.50 35.13 422.00 35.00 Z"/>
</g>
<g fill="None" fill-opacity="0.0" stroke="#E97024" stroke-opacity="0.51" stroke-width="0.3"><path d="
M 360.00 37.00 
C 363.27 37.00 366.34 37.13 369.00 36.00
C 365.73 36.00 362.66 35.87 360.00 37.00 Z"/>
</g>
<g fill="None" fill-opacity="0.0" stroke="#E97024" stroke-opacity="0.47" stroke-width="0.3"><path d="
M 352.00 38.00 
C 354.44 38.15 356.16 37.74 358.00 37.00
C 355.56 36.85 353.84 37.26 352.00 38.00 Z"/>
</g>
<g fill="None" fill-opacity="0.0" stroke="#E86622" stroke-opacity="0.99" stroke-width="0.3"><path d="
M 271.00 58.00 
C 268.73 59.14 266.83 60.54 264.00 61.00
C 264.00 61.00 263.47 60.89 263.00 61.00
C 259.72 63.63 255.00 65.27 251.00 67.00
C 238.75 72.29 226.78 78.57 215.00 85.00
C 230.34 112.73 250.16 138.55 266.00 166.00
C 267.57 168.32 269.31 171.54 270.00 173.00
C 270.90 174.37 272.00 175.85 273.00 177.00
C 274.53 178.76 275.56 181.12 276.00 182.00
C 281.36 190.30 286.66 198.64 292.08 206.92 C 297.51 215.20 302.79 223.46 308.23 231.77 C 313.67 240.08 318.85 248.39 324.25 256.75 C 329.64 265.12 342.84 253.71 350.00 251.00
C 349.00 251.00 348.00 251.00 347.00 251.00
C 347.00 180.33 347.00 109.67 347.00 39.00
C 348.12 39.84 349.52 38.08 350.00 38.00
C 336.53 37.48 320.74 43.17 308.02 46.02 C 295.31 48.88 282.32 52.34 271.00 58.00 Z"/>
</g>
<g fill="None" fill-opacity="0.0" stroke="#F38229" stroke-opacity="0.49" stroke-width="0.3"><path d="
M 487.00 45.00 
C 484.69 44.43 481.73 43.56 479.00 43.00
C 481.51 43.81 483.99 44.58 487.00 45.00 Z"/>
</g>
<g fill="None" fill-opacity="0.0" stroke="#F38229" stroke-opacity="0.49" stroke-width="0.3"><path d="
M 502.00 49.00 
C 499.39 46.88 495.35 46.76 492.00 46.00
C 495.13 47.11 498.36 48.40 502.00 49.00 Z"/>
</g>
<g fill="None" fill-opacity="0.0" stroke="#F38229" stroke-opacity="0.47" stroke-width="0.3"><path d="
M 512.00 52.00 
C 509.19 51.09 506.43 49.13 503.00 49.00
C 505.38 50.94 508.93 51.30 512.00 52.00 Z"/>
</g>
<g fill="None" fill-opacity="0.0" stroke="#F38229" stroke-opacity="0.52" stroke-width="0.3"><path d="
M 534.00 59.00 
C 531.74 58.11 529.22 57.79 527.00 57.00
C 529.31 58.11 532.42 58.58 534.00 59.00 Z"/>
</g>
<g fill="None" fill-opacity="0.0" stroke="#EF6628" stroke-opacity="0.52" stroke-width="0.3"><path d="
M 264.00 61.00 
C 266.83 60.54 268.73 59.14 271.00 58.00
C 268.39 58.96 266.10 59.20 264.00 61.00 Z"/>
</g>
<g fill="None" fill-opacity="0.0" stroke="#E96022" stroke-opacity="0.50" stroke-width="0.3"><path d="
M 251.00 66.00 
C 250.78 66.12 251.00 67.00 251.00 67.00
C 255.00 65.27 259.72 63.63 263.00 61.00
C 258.73 62.00 255.03 64.26 251.00 66.00 Z"/>
</g>
<g fill="None" fill-opacity="0.0" stroke="#F38229" stroke-opacity="0.49" stroke-width="0.3"><path d="
M 553.00 67.00 
C 548.76 65.02 544.26 63.73 540.00 62.00
C 544.03 64.20 549.45 65.86 553.00 67.00 Z"/>
</g>
<g fill="None" fill-opacity="0.0" stroke="#E96022" stroke-opacity="0.45" stroke-width="0.3"><path d="
M 266.00 166.00 
C 250.16 138.55 230.34 112.73 215.00 85.00
C 226.78 78.57 238.75 72.29 251.00 67.00
C 251.00 67.00 250.78 66.12 251.00 66.00
C 238.26 70.92 226.42 78.55 214.00 84.00
C 228.10 112.75 249.35 138.54 266.00 166.00 Z"/>
</g>
<g fill="None" fill-opacity="0.0" stroke="#F38229" stroke-opacity="0.55" stroke-width="0.3"><path d="
M 575.00 78.00 
C 568.82 74.80 561.96 72.29 556.00 69.00
C 560.30 72.15 570.32 78.27 575.00 78.00 Z"/>
</g>
<g fill="None" fill-opacity="0.0" stroke="#F38229" stroke-opacity="0.47" stroke-width="0.3"><path d="
M 584.00 83.00 
C 581.21 81.61 578.89 80.03 576.00 79.00
C 577.95 81.35 581.75 83.13 584.00 83.00 Z"/>
</g>
<g fill="None" fill-opacity="0.0" stroke="#F38229" stroke-opacity="0.46" stroke-width="0.3"><path d="
M 579.00 99.00 
C 581.26 95.56 589.60 86.29 585.00 84.00
C 586.91 86.96 580.05 96.92 579.00 99.00 Z"/>
</g>
<g fill="None" fill-opacity="0.0" stroke="#E96022" stroke-opacity="0.42" stroke-width="0.3"><path d="
M 172.00 114.00 
C 177.17 110.93 181.71 106.52 187.00 104.00
C 192.50 114.75 199.80 125.39 207.00 135.00
C 201.11 123.86 193.04 114.08 187.00 103.00
C 181.12 104.87 176.79 110.43 172.00 114.00 Z"/>
</g>
<g fill="None" fill-opacity="0.0" stroke="#F38229" stroke-opacity="0.44" stroke-width="0.3"><path d="
M 566.00 119.00 
C 569.45 113.75 572.41 108.12 576.00 103.00
C 571.91 107.70 568.27 114.51 566.00 119.00 Z"/>
</g>
<g fill="None" fill-opacity="0.0" stroke="#F38229" stroke-opacity="0.99" stroke-width="0.3"><path d="
M 769.00 387.00 
C 764.52 275.40 707.52 167.44 614.00 103.00
C 576.86 162.78 535.91 220.89 500.00 281.00
C 508.75 286.18 514.12 294.40 520.75 302.25 C 527.38 310.10 531.80 318.80 537.08 327.92 C 542.35 337.05 544.08 348.01 548.02 357.98 C 551.97 367.94 546.99 387.92 561.00 387.00 C 575.01 386.08 589.07 387.42 603.00 387.00 C 616.93 386.58 630.10 387.19 644.00 387.00 C 657.90 386.81 672.09 387.09 686.00 387.00 C 699.91 386.91 714.15 387.05 728.00 387.00 C 741.85 386.95 755.19 387.04 769.00 387.00 Z"/>
</g>
<g fill="None" fill-opacity="0.0" stroke="#E85526" stroke-opacity="1.00" stroke-width="0.3"><path d="
M 172.00 114.00 
C 161.99 119.95 154.00 129.31 145.00 137.00
C 141.41 140.59 137.54 144.46 134.00 148.00
C 113.65 171.81 89.48 196.10 78.00 225.00
C 77.12 227.23 76.30 228.19 75.00 230.00
C 71.56 236.03 68.16 242.26 66.00 249.00
C 65.25 251.34 64.15 253.05 63.00 255.00
C 56.60 265.89 51.51 280.45 49.00 293.00
C 48.53 295.36 47.80 297.06 47.00 299.00
C 42.25 310.54 38.91 325.10 38.00 338.00
C 37.85 340.10 38.43 341.52 37.00 343.00
C 37.00 343.00 36.94 343.51 37.00 344.00
C 37.27 346.19 36.85 347.44 36.00 349.00
C 35.73 349.49 35.14 350.45 35.00 351.00
C 34.98 352.85 36.01 353.76 35.00 356.00
C 35.00 356.50 34.97 357.50 35.00 358.00
C 35.17 360.75 34.89 362.90 34.00 365.00
C 34.03 365.50 34.00 366.50 34.00 367.00
C 34.00 370.60 33.64 374.08 33.00 377.00
C 33.00 378.00 33.00 379.00 33.00 380.00
C 33.00 380.86 32.04 385.16 32.00 385.00
C 33.74 389.88 46.27 386.11 52.00 387.00 C 57.73 387.89 67.41 386.60 74.00 387.00 C 80.59 387.40 89.04 386.83 96.00 387.00 C 102.96 387.17 110.92 386.94 118.00 387.00 C 125.08 387.06 131.86 387.03 139.00 387.00 C 146.14 386.97 153.84 387.12 161.00 387.00 C 168.16 386.88 175.93 387.29 183.00 387.00 C 190.07 386.71 198.19 387.64 205.00 387.00 C 211.81 386.36 220.80 388.43 227.00 387.00 C 233.20 385.57 243.20 390.36 248.00 387.00
C 248.36 383.64 247.08 379.60 249.00 377.00
C 249.00 377.00 249.05 376.49 249.00 376.00
C 248.73 373.55 249.57 371.75 250.00 370.00
C 250.27 368.07 250.74 366.11 251.00 364.00
C 251.45 360.32 251.73 355.79 254.00 353.00
C 254.00 353.00 253.98 352.50 254.00 352.00
C 254.52 338.27 265.67 322.79 273.00 312.00
C 280.58 300.84 288.50 288.61 300.00 280.00
C 296.78 272.54 290.70 266.35 287.00 259.00
C 284.06 254.24 280.94 249.70 278.00 245.00
C 276.42 243.59 275.22 240.89 274.00 239.00
C 270.31 233.28 266.56 227.75 263.00 222.00
C 260.36 217.73 257.70 212.97 255.00 209.00
C 244.19 193.08 231.14 175.09 223.00 159.00
C 222.10 157.63 221.00 156.15 220.00 155.00
C 215.89 150.28 212.21 143.37 210.00 139.00
C 209.10 137.63 208.00 136.15 207.00 135.00
C 199.80 125.39 192.50 114.75 187.00 104.00
C 181.71 106.52 177.17 110.93 172.00 114.00 Z"/>
</g>
<g fill="None" fill-opacity="0.0" stroke="#F38229" stroke-opacity="0.45" stroke-width="0.3"><path d="
M 553.00 139.00 
C 556.45 133.75 559.41 128.12 563.00 123.00
C 558.91 127.70 555.27 134.51 553.00 139.00 Z"/>
</g>
<g fill="None" fill-opacity="0.0" stroke="#EC5D26" stroke-opacity="0.06" stroke-width="0.3"><path d="
M 134.00 148.00 
C 137.54 144.46 141.41 140.59 145.00 137.00
C 141.11 140.33 137.37 144.06 134.00 148.00 Z"/>
</g>
<g fill="None" fill-opacity="0.0" stroke="#E96022" stroke-opacity="0.45" stroke-width="0.3"><path d="
M 220.00 155.00 
C 216.42 149.89 213.47 144.28 210.00 139.00
C 212.21 143.37 215.89 150.28 220.00 155.00 Z"/>
</g>
<g fill="None" fill-opacity="0.0" stroke="#F38229" stroke-opacity="0.46" stroke-width="0.3"><path d="
M 540.00 159.00 
C 543.64 153.83 546.39 148.15 550.00 143.00
C 546.89 146.58 539.76 154.96 540.00 159.00 Z"/>
</g>
<g fill="None" fill-opacity="0.0" stroke="#E96022" stroke-opacity="0.43" stroke-width="0.3"><path d="
M 255.00 209.00 
C 244.83 192.23 233.88 175.55 223.00 159.00
C 231.14 175.09 244.19 193.08 255.00 209.00 Z"/>
</g>
<g fill="None" fill-opacity="0.0" stroke="#F38229" stroke-opacity="0.45" stroke-width="0.3"><path d="
M 529.00 176.00 
C 532.48 170.71 535.61 165.34 539.00 160.00
C 534.24 163.72 531.09 171.88 529.00 176.00 Z"/>
</g>
<g fill="None" fill-opacity="0.0" stroke="#E86622" stroke-opacity="0.46" stroke-width="0.3"><path d="
M 270.00 173.00 
C 269.31 171.54 267.57 168.32 266.00 166.00
C 267.33 168.19 268.48 170.69 270.00 173.00 Z"/>
</g>
<g fill="None" fill-opacity="0.0" stroke="#EF6628" stroke-opacity="0.51" stroke-width="0.3"><path d="
M 276.00 182.00 
C 275.56 181.12 274.53 178.76 273.00 177.00
C 274.10 178.56 274.93 180.34 276.00 182.00 Z"/>
</g>
<g fill="None" fill-opacity="0.0" stroke="#F38229" stroke-opacity="0.46" stroke-width="0.3"><path d="
M 516.00 196.00 
C 519.45 190.75 522.41 185.12 526.00 180.00
C 521.86 184.76 518.30 191.45 516.00 196.00 Z"/>
</g>
<g fill="None" fill-opacity="0.0" stroke="#F38229" stroke-opacity="0.45" stroke-width="0.3"><path d="
M 503.00 216.00 
C 506.45 210.75 509.41 205.12 513.00 200.00
C 508.91 204.70 505.27 211.51 503.00 216.00 Z"/>
</g>
<g fill="None" fill-opacity="0.0" stroke="#E96022" stroke-opacity="0.40" stroke-width="0.3"><path d="
M 263.00 222.00 
C 263.22 222.25 264.00 222.00 264.00 222.00
C 261.17 217.61 257.63 213.33 255.00 209.00
C 257.70 212.97 260.36 217.73 263.00 222.00 Z"/>
</g>
<g fill="None" fill-opacity="0.0" stroke="#F38229" stroke-opacity="0.43" stroke-width="0.3"><path d="
M 477.00 255.00 
C 484.69 243.68 492.04 231.35 500.00 220.00
C 491.32 229.98 483.37 243.19 477.00 255.00 Z"/>
</g>
<g fill="None" fill-opacity="0.0" stroke="#EF6628" stroke-opacity="0.45" stroke-width="0.3"><path d="
M 274.00 239.00 
C 274.22 239.25 275.00 239.00 275.00 239.00
C 271.33 233.30 267.68 227.70 264.00 222.00
C 264.00 222.00 263.22 222.25 263.00 222.00
C 266.56 227.75 270.31 233.28 274.00 239.00 Z"/>
</g>
<g fill="None" fill-opacity="0.0" stroke="#E54B21" stroke-opacity="0.49" stroke-width="0.3"><path d="
M 75.00 230.00 
C 76.30 228.19 77.12 227.23 78.00 225.00
C 77.26 226.41 75.83 228.53 75.00 230.00 Z"/>
</g>
<g fill="None" fill-opacity="0.0" stroke="#E86622" stroke-opacity="0.40" stroke-width="0.3"><path d="
M 278.00 245.00 
C 278.28 245.25 279.00 245.00 279.00 245.00
C 277.73 242.94 276.33 241.06 275.00 239.00
C 275.00 239.00 274.22 239.25 274.00 239.00
C 275.22 240.89 276.42 243.59 278.00 245.00 Z"/>
</g>
<g fill="None" fill-opacity="0.0" stroke="#EC7321" stroke-opacity="0.61" stroke-width="0.3"><path d="
M 389.00 243.00 
C 396.33 243.00 403.67 243.00 411.00 243.00
C 405.25 241.74 394.73 240.56 389.00 243.00 Z"/>
</g>
<g fill="None" fill-opacity="0.0" stroke="#EC7321" stroke-opacity="0.44" stroke-width="0.3"><path d="
M 380.00 244.00 
C 382.69 244.17 384.92 243.89 387.00 243.00
C 384.31 242.83 382.08 243.12 380.00 244.00 Z"/>
</g>
<g fill="None" fill-opacity="0.0" stroke="#EC7321" stroke-opacity="0.45" stroke-width="0.3"><path d="
M 421.00 244.00 
C 418.99 243.58 416.69 242.93 414.00 243.00
C 415.93 243.42 418.52 243.71 421.00 244.00 Z"/>
</g>
<g fill="None" fill-opacity="0.0" stroke="#EC7321" stroke-opacity="0.47" stroke-width="0.3"><path d="
M 369.00 245.00 
C 368.94 245.01 369.00 246.00 369.00 246.00
C 372.05 245.30 375.33 244.77 378.00 244.00
C 375.02 243.89 371.81 244.36 369.00 245.00 Z"/>
</g>
<g fill="None" fill-opacity="0.0" stroke="#EF6628" stroke-opacity="0.44" stroke-width="0.3"><path d="
M 287.00 259.00 
C 287.22 259.25 288.00 259.00 288.00 259.00
C 284.98 254.31 281.94 249.74 279.00 245.00
C 279.00 245.00 278.28 245.25 278.00 245.00
C 280.94 249.70 284.06 254.24 287.00 259.00 Z"/>
</g>
<g fill="None" fill-opacity="0.0" stroke="#E97024" stroke-opacity="0.49" stroke-width="0.3"><path d="
M 360.00 248.00 
C 362.94 247.25 366.09 246.67 369.00 246.00
C 369.00 246.00 368.94 245.01 369.00 245.00
C 365.98 245.69 362.61 246.99 360.00 248.00 Z"/>
</g>
<g fill="None" fill-opacity="0.0" stroke="#E54B21" stroke-opacity="0.53" stroke-width="0.3"><path d="
M 63.00 255.00 
C 64.15 253.05 65.25 251.34 66.00 249.00
C 65.22 250.74 63.85 253.06 63.00 255.00 Z"/>
</g>
<g fill="None" fill-opacity="0.0" stroke="#F38229" stroke-opacity="0.29" stroke-width="0.3"><path d="
M 473.00 261.00 
C 471.06 258.86 467.70 257.97 465.00 257.00
C 466.91 257.94 470.39 261.55 473.00 261.00 Z"/>
</g>
<g fill="None" fill-opacity="0.0" stroke="#E86622" stroke-opacity="0.46" stroke-width="0.3"><path d="
M 273.00 312.00 
C 279.56 302.14 284.28 294.54 294.25 286.25 C 304.22 277.96 294.49 269.06 288.00 259.00
C 288.00 259.00 287.22 259.25 287.00 259.00
C 290.70 266.35 296.78 272.54 300.00 280.00
C 288.50 288.61 280.58 300.84 273.00 312.00 Z"/>
</g>
<g fill="None" fill-opacity="0.0" stroke="#E54B21" stroke-opacity="0.53" stroke-width="0.3"><path d="
M 47.00 299.00 
C 47.80 297.06 48.53 295.36 49.00 293.00
C 48.54 294.58 47.57 297.12 47.00 299.00 Z"/>
</g>
<g fill="None" fill-opacity="0.0" stroke="#EF6628" stroke-opacity="0.49" stroke-width="0.3"><path d="
M 254.00 352.00 
C 258.38 346.60 258.90 336.87 262.70 330.70 C 266.49 324.52 268.97 318.05 273.00 312.00
C 265.67 322.79 254.52 338.27 254.00 352.00 Z"/>
</g>
<g fill="None" fill-opacity="0.0" stroke="#E54B21" stroke-opacity="0.54" stroke-width="0.3"><path d="
M 37.00 343.00 
C 38.43 341.52 37.85 340.10 38.00 338.00
C 37.76 339.38 36.74 340.89 37.00 343.00 Z"/>
</g>
<g fill="None" fill-opacity="0.0" stroke="#E54B21" stroke-opacity="0.50" stroke-width="0.3"><path d="
M 36.00 349.00 
C 36.85 347.44 37.27 346.19 37.00 344.00
C 35.44 345.61 36.52 346.89 36.00 349.00 Z"/>
</g>
<g fill="None" fill-opacity="0.0" stroke="#E54B21" stroke-opacity="0.51" stroke-width="0.3"><path d="
M 35.00 356.00 
C 36.01 353.76 34.98 352.85 35.00 351.00
C 34.63 352.45 35.00 354.50 35.00 356.00 Z"/>
</g>
<g fill="None" fill-opacity="0.0" stroke="#E96022" stroke-opacity="0.44" stroke-width="0.3"><path d="
M 251.00 364.00 
C 251.75 360.69 253.38 356.77 254.00 353.00
C 251.73 355.79 251.45 360.32 251.00 364.00 Z"/>
</g>
<g fill="None" fill-opacity="0.0" stroke="#E54B21" stroke-opacity="0.48" stroke-width="0.3"><path d="
M 34.00 365.00 
C 34.89 362.90 35.17 360.75 35.00 358.00
C 34.11 360.10 33.83 362.25 34.00 365.00 Z"/>
</g>
<g fill="None" fill-opacity="0.0" stroke="#E54B21" stroke-opacity="0.51" stroke-width="0.3"><path d="
M 33.00 377.00 
C 33.64 374.08 34.00 370.60 34.00 367.00
C 32.77 369.90 33.00 373.42 33.00 377.00 Z"/>
</g>
<g fill="None" fill-opacity="0.0" stroke="#E96022" stroke-opacity="0.47" stroke-width="0.3"><path d="
M 249.00 376.00 
C 250.54 374.20 249.67 372.40 250.00 370.00
C 249.57 371.75 248.73 373.55 249.00 376.00 Z"/>
</g>
<g fill="None" fill-opacity="0.0" stroke="#E96022" stroke-opacity="0.45" stroke-width="0.3"><path d="
M 248.00 387.00 
C 250.08 385.54 249.00 379.50 249.00 377.00
C 247.08 379.60 248.36 383.64 248.00 387.00 Z"/>
</g>
<g fill="None" fill-opacity="0.0" stroke="#E54B21" stroke-opacity="0.24" stroke-width="0.3"><path d="
M 32.00 385.00 
C 32.04 385.16 33.00 380.86 33.00 380.00
C 32.77 381.26 31.28 382.98 32.00 385.00 Z"/>
</g>
<g fill="None" fill-opacity="0.0" stroke="#E85526" stroke-opacity="0.50" stroke-width="0.3"><path d="
M 32.00 421.00 
C 32.05 420.85 33.00 421.00 33.00 421.00
C 37.91 417.36 46.49 420.92 53.00 420.00 C 59.51 419.08 68.05 420.41 75.00 420.00 C 81.95 419.59 89.86 420.18 97.00 420.00 C 104.14 419.82 111.80 420.06 119.00 420.00 C 126.20 419.94 133.83 419.98 141.00 420.00 C 148.17 420.02 154.86 419.87 162.00 420.00 C 169.14 420.13 176.91 419.70 184.00 420.00 C 191.09 420.30 199.13 419.32 206.00 420.00 C 212.87 420.68 221.66 418.49 228.00 420.00 C 234.34 421.51 244.86 416.65 250.00 420.00
C 245.56 415.85 234.33 420.27 228.00 419.00 C 221.67 417.73 212.87 419.57 206.00 419.00 C 199.13 418.43 191.11 419.25 184.00 419.00 C 176.89 418.75 169.20 419.11 162.00 419.00 C 154.80 418.89 147.20 419.03 140.00 419.00 C 132.80 418.97 125.11 418.97 118.00 419.00 C 110.89 419.03 102.86 418.89 96.00 419.00 C 89.14 419.11 80.31 418.74 74.00 419.00 C 67.69 419.26 57.07 418.42 52.00 419.00 C 46.93 419.58 32.24 416.83 32.00 421.00 Z"/>
</g>
<g fill="None" fill-opacity="0.0" stroke="#F38229" stroke-opacity="0.99" stroke-width="0.3"><path d="
M 769.00 419.00 
C 755.03 418.93 740.96 419.09 727.00 419.00 C 713.04 418.91 698.92 419.17 685.00 419.00 C 671.08 418.83 657.94 419.38 644.00 419.00 C 630.06 418.62 616.03 419.81 602.00 419.00 C 587.97 418.19 575.25 420.84 561.00 419.00 C 546.75 417.16 548.32 434.19 544.32 444.32 C 540.32 454.45 536.92 463.46 531.31 472.31 C 525.69 481.15 520.95 489.29 513.75 496.75 C 506.55 504.21 501.58 511.57 495.00 519.00
C 534.29 580.58 574.72 641.40 614.00 703.00
C 707.79 638.88 764.48 530.42 769.00 419.00 Z"/>
</g>
<g fill="None" fill-opacity="0.0" stroke="#EC5D26" stroke-opacity="1.00" stroke-width="0.3"><path d="
M 33.00 421.00 
C 33.45 422.31 33.00 424.61 33.00 426.00
C 33.00 427.33 33.00 428.67 33.00 430.00
C 33.34 432.52 34.00 435.83 34.00 439.00
C 34.00 439.50 34.03 440.50 34.00 441.00
C 34.89 443.08 35.17 445.31 35.00 448.00
C 34.97 448.50 35.03 449.50 35.00 450.00
C 35.72 451.79 36.26 453.60 36.00 456.00
C 36.00 456.00 36.06 456.51 36.00 457.00
C 37.35 458.39 36.86 460.01 37.00 462.00
C 38.24 479.67 43.58 500.44 49.22 516.78 C 54.86 533.11 59.64 549.78 69.00 564.00
C 70.88 566.86 72.24 570.84 73.00 573.00
C 76.88 580.58 80.99 588.27 86.00 595.00
C 94.94 607.02 103.61 620.06 112.75 632.25 C 121.89 644.44 134.27 654.47 143.00 667.00
C 143.16 667.23 144.00 667.00 144.00 667.00
C 150.22 670.04 157.49 679.07 162.00 684.00
C 169.44 691.10 178.01 698.20 187.00 703.00
C 187.68 701.12 188.91 699.68 190.00 698.00
C 192.27 693.39 195.98 686.85 200.00 682.00
C 201.22 680.16 202.68 677.99 204.00 676.00
C 206.36 671.38 208.75 665.32 213.00 662.00
C 213.29 661.78 213.79 661.30 214.00 661.00
C 213.76 656.96 220.89 648.58 224.00 645.00
C 225.03 643.81 226.03 642.47 227.00 641.00
C 237.51 620.23 254.06 598.90 267.00 578.00
C 268.54 575.51 270.49 573.23 272.00 571.00
C 273.87 568.25 276.14 564.75 278.00 562.00
C 282.30 555.67 286.69 548.35 291.00 542.00
C 293.96 537.65 297.04 532.36 300.00 528.00
C 300.77 526.87 303.59 523.07 304.00 522.00
C 305.49 518.10 298.57 510.12 296.00 507.00
C 292.34 502.55 287.75 498.35 284.00 494.00
C 279.59 489.08 275.60 483.58 272.00 478.00
C 270.91 476.31 270.04 474.68 269.00 473.00
C 267.10 469.94 265.76 466.17 265.00 464.00
C 263.30 460.68 261.48 457.43 260.00 454.00
C 258.06 450.67 257.57 447.75 257.00 445.00
C 255.73 441.29 254.47 436.51 252.98 433.02 C 251.49 429.54 252.75 422.57 250.00 420.00
C 244.86 416.65 234.34 421.51 228.00 420.00 C 221.66 418.49 212.87 420.68 206.00 420.00 C 199.13 419.32 191.09 420.30 184.00 420.00 C 176.91 419.70 169.14 420.13 162.00 420.00 C 154.86 419.87 148.17 420.02 141.00 420.00 C 133.83 419.98 126.20 419.94 119.00 420.00 C 111.80 420.06 104.14 419.82 97.00 420.00 C 89.86 420.18 81.95 419.59 75.00 420.00 C 68.05 420.41 59.51 419.08 53.00 420.00 C 46.49 420.92 37.91 417.36 33.00 421.00 Z"/>
</g>
<g fill="None" fill-opacity="0.0" stroke="#E54B21" stroke-opacity="0.25" stroke-width="0.3"><path d="
M 33.00 426.00 
C 33.00 424.61 33.45 422.31 33.00 421.00
C 33.00 421.00 32.05 420.85 32.00 421.00
C 31.37 422.96 32.83 424.76 33.00 426.00 Z"/>
</g>
<g fill="None" fill-opacity="0.0" stroke="#E54B21" stroke-opacity="0.49" stroke-width="0.3"><path d="
M 34.00 439.00 
C 34.00 435.83 33.34 432.52 33.00 430.00
C 33.00 433.27 32.87 436.34 34.00 439.00 Z"/>
</g>
<g fill="None" fill-opacity="0.0" stroke="#E54B21" stroke-opacity="0.52" stroke-width="0.3"><path d="
M 35.00 448.00 
C 35.17 445.31 34.89 443.08 34.00 441.00
C 33.83 443.69 34.11 445.92 35.00 448.00 Z"/>
</g>
<g fill="None" fill-opacity="0.0" stroke="#EF6628" stroke-opacity="0.45" stroke-width="0.3"><path d="
M 260.00 454.00 
C 258.76 451.12 258.01 447.94 257.00 445.00
C 257.57 447.75 258.06 450.67 260.00 454.00 Z"/>
</g>
<g fill="None" fill-opacity="0.0" stroke="#E54B21" stroke-opacity="0.46" stroke-width="0.3"><path d="
M 36.00 456.00 
C 36.26 453.60 35.72 451.79 35.00 450.00
C 34.87 452.16 34.71 454.48 36.00 456.00 Z"/>
</g>
<g fill="None" fill-opacity="0.0" stroke="#E54B21" stroke-opacity="0.54" stroke-width="0.3"><path d="
M 37.00 462.00 
C 36.86 460.01 37.35 458.39 36.00 457.00
C 35.75 459.05 36.76 460.63 37.00 462.00 Z"/>
</g>
<g fill="None" fill-opacity="0.0" stroke="#EF6628" stroke-opacity="0.39" stroke-width="0.3"><path d="
M 269.00 473.00 
C 269.22 473.25 270.00 473.00 270.00 473.00
C 268.16 470.03 266.60 467.13 265.00 464.00
C 265.76 466.17 267.10 469.94 269.00 473.00 Z"/>
</g>
<g fill="None" fill-opacity="0.0" stroke="#E86622" stroke-opacity="0.40" stroke-width="0.3"><path d="
M 272.00 478.00 
C 272.22 478.25 273.00 478.00 273.00 478.00
C 271.94 476.35 271.03 474.67 270.00 473.00
C 270.00 473.00 269.22 473.25 269.00 473.00
C 270.04 474.68 270.91 476.31 272.00 478.00 Z"/>
</g>
<g fill="None" fill-opacity="0.0" stroke="#EF6628" stroke-opacity="0.42" stroke-width="0.3"><path d="
M 284.00 494.00 
C 284.22 494.25 285.00 494.00 285.00 494.00
C 280.60 488.85 276.64 483.64 273.00 478.00
C 273.00 478.00 272.22 478.25 272.00 478.00
C 275.60 483.58 279.59 489.08 284.00 494.00 Z"/>
</g>
<g fill="None" fill-opacity="0.0" stroke="#E86622" stroke-opacity="0.50" stroke-width="0.3"><path d="
M 296.00 507.00 
C 292.45 502.68 288.73 498.37 285.00 494.00
C 285.00 494.00 284.22 494.25 284.00 494.00
C 287.75 498.35 292.34 502.55 296.00 507.00 Z"/>
</g>
<g fill="None" fill-opacity="0.0" stroke="#E86622" stroke-opacity="0.41" stroke-width="0.3"><path d="
M 304.00 522.00 
C 306.73 516.48 299.80 511.62 296.00 507.00
C 298.57 510.12 305.49 518.10 304.00 522.00 Z"/>
</g>
<g fill="None" fill-opacity="0.0" stroke="#EF6628" stroke-opacity="0.41" stroke-width="0.3"><path d="
M 300.00 528.00 
C 301.27 526.09 302.88 524.27 304.00 522.00
C 303.59 523.07 300.77 526.87 300.00 528.00 Z"/>
</g>
<g fill="None" fill-opacity="0.0" stroke="#E86622" stroke-opacity="0.44" stroke-width="0.3"><path d="
M 291.00 542.00 
C 293.97 537.54 296.94 532.60 300.00 528.00
C 297.04 532.36 293.96 537.65 291.00 542.00 Z"/>
</g>
<g fill="None" fill-opacity="0.0" stroke="#E86622" stroke-opacity="0.44" stroke-width="0.3"><path d="
M 278.00 562.00 
C 282.29 555.55 286.60 548.61 291.00 542.00
C 286.69 548.35 282.30 555.67 278.00 562.00 Z"/>
</g>
<g fill="None" fill-opacity="0.0" stroke="#E86622" stroke-opacity="0.99" stroke-width="0.3"><path d="
M 280.00 618.00 
C 279.53 618.95 278.48 621.29 277.00 623.00
C 275.96 624.19 274.97 625.53 274.00 627.00
C 273.17 628.75 272.66 631.92 270.00 634.00
C 269.71 634.22 269.21 634.70 269.00 635.00
C 269.19 638.13 264.12 643.57 262.00 647.00
C 259.06 651.74 256.02 656.31 253.00 661.00
C 246.67 670.80 240.62 681.40 233.75 690.75 C 226.87 700.10 222.31 712.05 214.00 720.00
C 214.00 720.00 213.75 720.72 214.00 721.00
C 220.70 722.36 226.85 727.87 233.08 730.92 C 239.30 733.98 247.65 736.70 253.00 741.00
C 253.00 741.00 253.53 740.89 254.00 741.00
C 259.69 742.34 266.05 745.41 271.00 748.00
C 273.09 749.09 275.61 750.09 278.00 751.00
C 279.28 751.31 281.29 752.18 283.00 753.00
C 307.51 761.65 334.88 767.82 361.00 770.00
C 362.64 770.02 365.14 769.66 367.00 770.00
C 371.25 770.35 375.44 771.00 380.00 771.00
C 377.04 770.68 372.66 769.16 369.00 770.00
C 369.00 742.33 369.00 714.67 369.00 687.00
C 367.15 686.81 365.79 686.44 364.00 686.00
C 362.46 685.79 361.12 686.29 359.00 685.00
C 357.98 684.56 356.00 682.81 355.00 682.00
C 353.35 681.09 351.84 679.56 351.00 678.00
C 349.47 676.11 344.55 667.27 346.00 665.00
C 347.65 662.42 353.91 664.42 357.00 664.00 C 360.09 663.58 365.68 664.00 369.00 664.00
C 369.00 658.67 369.00 653.33 369.00 648.00
C 360.05 648.00 349.05 649.28 341.00 647.00
C 325.39 642.58 326.43 624.05 341.00 619.00
C 348.74 616.32 360.33 618.00 369.00 618.00
C 369.00 612.67 369.00 607.33 369.00 602.00
C 361.88 599.45 343.29 606.72 339.99 599.01 C 336.69 591.29 336.87 581.30 333.32 573.68 C 329.77 566.05 328.57 558.49 325.00 551.00
C 308.93 571.34 294.51 595.52 280.00 618.00 Z"/>
</g>
<g fill="None" fill-opacity="0.0" stroke="#F38229" stroke-opacity="0.45" stroke-width="0.3"><path d="
M 475.00 555.00 
C 475.75 554.22 477.10 553.54 478.00 553.00
C 484.62 563.01 490.46 573.88 498.00 583.00
C 491.97 571.94 483.91 562.15 478.00 551.00
C 476.20 551.51 475.78 553.56 475.00 555.00 Z"/>
</g>
<g fill="None" fill-opacity="0.0" stroke="#E67720" stroke-opacity="1.00" stroke-width="0.3"><path d="
M 475.00 555.00 
C 471.53 561.45 469.63 566.40 467.78 573.78 C 465.92 581.15 462.23 583.98 461.99 592.99 C 461.76 602.00 453.99 603.17 445.00 602.00 C 436.01 600.83 428.72 602.49 420.00 602.00 C 411.28 601.51 402.60 602.20 394.00 602.00 C 385.40 601.80 377.53 602.00 369.00 602.00
C 369.00 607.33 369.00 612.67 369.00 618.00
C 383.03 618.00 398.07 617.12 412.00 618.00 C 425.93 618.88 442.19 615.27 455.00 619.00
C 457.33 619.68 459.90 620.72 462.00 622.00
C 464.74 623.68 466.45 625.92 467.00 629.00
C 468.74 638.69 463.64 644.86 455.00 647.00
C 441.96 650.23 427.09 647.36 413.00 648.00 C 398.91 648.64 383.23 648.00 369.00 648.00
C 369.00 653.33 369.00 658.67 369.00 664.00
C 375.48 664.00 382.58 663.80 389.00 664.00 C 395.42 664.20 403.89 663.49 410.00 664.00 C 416.11 664.51 424.79 662.78 430.00 664.00 C 435.21 665.22 447.27 660.93 450.00 665.00
C 453.10 669.62 446.22 678.17 441.75 681.75 C 437.29 685.33 428.30 687.89 421.00 687.00 C 413.70 686.11 402.93 687.64 395.00 687.00 C 387.07 686.36 377.08 687.82 369.00 687.00
C 369.00 714.67 369.00 742.33 369.00 770.00
C 372.66 769.16 377.04 770.68 380.00 771.00
C 381.67 771.00 383.33 771.00 385.00 771.00
C 395.33 771.00 405.67 771.00 416.00 771.00
C 438.21 771.00 458.98 767.28 480.00 763.00
C 485.91 761.08 492.50 759.03 499.00 758.00
C 502.00 757.52 504.17 756.79 507.00 756.00
C 508.73 755.32 511.00 755.21 512.00 755.00
C 515.43 753.96 519.00 752.40 522.00 751.00
C 523.54 750.28 525.10 749.50 527.00 749.00
C 531.00 747.95 534.54 746.89 538.00 745.00
C 540.82 743.46 543.72 742.01 547.00 741.00
C 549.19 740.33 550.16 740.11 552.00 739.00
C 558.05 735.36 572.87 725.66 579.00 726.00
C 579.33 725.83 579.77 725.28 580.00 725.00
C 581.08 723.70 584.78 720.60 586.00 722.00
C 587.54 719.52 586.16 719.23 585.00 717.00
C 581.62 711.88 577.23 705.40 575.00 701.00
C 574.10 699.63 573.00 698.15 572.00 697.00
C 567.84 692.22 564.25 685.44 562.00 681.00
C 561.10 679.63 560.00 678.15 559.00 677.00
C 554.89 672.28 551.21 665.37 549.00 661.00
C 548.10 659.63 547.00 658.15 546.00 657.00
C 541.89 652.28 538.22 645.37 536.00 641.00
C 535.10 639.63 534.00 638.15 533.00 637.00
C 529.84 633.36 522.76 624.96 523.00 621.00
C 522.79 620.70 522.29 620.23 522.00 620.00
C 517.22 616.27 514.02 608.00 512.00 604.00
C 511.10 602.63 510.00 601.15 509.00 600.00
C 505.84 596.36 498.76 587.96 499.00 584.00
C 498.79 583.70 498.29 583.23 498.00 583.00
C 490.46 573.88 484.62 563.01 478.00 553.00
C 477.10 553.54 475.75 554.22 475.00 555.00 Z"/>
</g>
<g fill="None" fill-opacity="0.0" stroke="#EF6628" stroke-opacity="0.45" stroke-width="0.3"><path d="
M 272.00 571.00 
C 273.71 568.17 276.05 564.92 278.00 562.00
C 276.14 564.75 273.87 568.25 272.00 571.00 Z"/>
</g>
<g fill="None" fill-opacity="0.0" stroke="#E54B21" stroke-opacity="0.51" stroke-width="0.3"><path d="
M 73.00 573.00 
C 72.24 570.84 70.88 566.86 69.00 564.00
C 70.42 566.87 71.49 570.05 73.00 573.00 Z"/>
</g>
<g fill="None" fill-opacity="0.0" stroke="#E86622" stroke-opacity="0.46" stroke-width="0.3"><path d="
M 267.00 578.00 
C 267.22 577.75 268.00 578.00 268.00 578.00
C 269.46 575.73 270.69 573.16 272.00 571.00
C 270.49 573.23 268.54 575.51 267.00 578.00 Z"/>
</g>
<g fill="None" fill-opacity="0.0" stroke="#E96022" stroke-opacity="0.43" stroke-width="0.3"><path d="
M 227.00 641.00 
C 240.77 620.04 254.39 599.10 268.00 578.00
C 268.00 578.00 267.22 577.75 267.00 578.00
C 254.06 598.90 237.51 620.23 227.00 641.00 Z"/>
</g>
<g fill="None" fill-opacity="0.0" stroke="#F38229" stroke-opacity="0.44" stroke-width="0.3"><path d="
M 509.00 600.00 
C 505.40 594.86 502.66 589.20 499.00 584.00
C 498.76 587.96 505.84 596.36 509.00 600.00 Z"/>
</g>
<g fill="None" fill-opacity="0.0" stroke="#E85526" stroke-opacity="0.40" stroke-width="0.3"><path d="
M 143.00 667.00 
C 134.27 654.47 121.89 644.44 112.75 632.25 C 103.61 620.06 94.94 607.02 86.00 595.00
C 101.90 621.22 120.66 644.66 143.00 667.00 Z"/>
</g>
<g fill="None" fill-opacity="0.0" stroke="#F38229" stroke-opacity="0.45" stroke-width="0.3"><path d="
M 522.00 620.00 
C 518.62 614.67 515.50 609.32 512.00 604.00
C 514.02 608.00 517.22 616.27 522.00 620.00 Z"/>
</g>
<g fill="None" fill-opacity="0.0" stroke="#EF6628" stroke-opacity="0.50" stroke-width="0.3"><path d="
M 277.00 623.00 
C 278.48 621.29 279.53 618.95 280.00 618.00
C 278.96 619.61 278.10 621.43 277.00 623.00 Z"/>
</g>
<g fill="None" fill-opacity="0.0" stroke="#EC7321" stroke-opacity="0.75" stroke-width="0.3"><path d="
M 341.00 619.00 
C 353.01 616.56 366.70 619.75 379.00 619.00 C 391.30 618.25 404.66 618.56 417.00 619.00 C 429.34 619.44 442.83 617.06 455.00 619.00
C 442.19 615.27 425.93 618.88 412.00 618.00 C 398.07 617.12 383.03 618.00 369.00 618.00
C 360.33 618.00 348.74 616.32 341.00 619.00 Z"/>
</g>
<g fill="None" fill-opacity="0.0" stroke="#000000" stroke-opacity="0.00" stroke-width="0.3"><path d="
M 341.00 647.00 
C 359.15 649.77 379.60 646.81 398.00 647.00 C 416.40 647.19 436.75 649.26 455.00 647.00
C 463.64 644.86 468.74 638.69 467.00 629.00
C 466.62 627.47 463.42 623.11 462.00 622.00
C 459.90 620.72 457.33 619.68 455.00 619.00
C 442.83 617.06 429.34 619.44 417.00 619.00 C 404.66 618.56 391.30 618.25 379.00 619.00 C 366.70 619.75 353.01 616.56 341.00 619.00
C 326.43 624.05 325.39 642.58 341.00 647.00 Z"/>
</g>
<g fill="None" fill-opacity="0.0" stroke="#F38229" stroke-opacity="0.44" stroke-width="0.3"><path d="
M 533.00 637.00 
C 529.55 631.74 526.67 626.21 523.00 621.00
C 522.76 624.96 529.84 633.36 533.00 637.00 Z"/>
</g>
<g fill="None" fill-opacity="0.0" stroke="#F38229" stroke-opacity="0.25" stroke-width="0.3"><path d="
M 467.00 629.00 
C 466.45 625.92 464.74 623.68 462.00 622.00
C 463.42 623.11 466.62 627.47 467.00 629.00 Z"/>
</g>
<g fill="None" fill-opacity="0.0" stroke="#E86622" stroke-opacity="0.50" stroke-width="0.3"><path d="
M 270.00 634.00 
C 272.66 631.92 273.17 628.75 274.00 627.00
C 272.51 629.27 271.48 631.75 270.00 634.00 Z"/>
</g>
<g fill="None" fill-opacity="0.0" stroke="#E96022" stroke-opacity="0.42" stroke-width="0.3"><path d="
M 261.00 647.00 
C 261.22 646.75 262.00 647.00 262.00 647.00
C 264.12 643.57 269.19 638.13 269.00 635.00
C 266.23 638.94 263.63 642.93 261.00 647.00 Z"/>
</g>
<g fill="None" fill-opacity="0.0" stroke="#F38229" stroke-opacity="0.45" stroke-width="0.3"><path d="
M 546.00 657.00 
C 542.42 651.89 539.47 646.28 536.00 641.00
C 538.22 645.37 541.89 652.28 546.00 657.00 Z"/>
</g>
<g fill="None" fill-opacity="0.0" stroke="#E96022" stroke-opacity="0.46" stroke-width="0.3"><path d="
M 214.00 661.00 
C 217.65 655.83 220.39 650.15 224.00 645.00
C 220.89 648.58 213.76 656.96 214.00 661.00 Z"/>
</g>
<g fill="None" fill-opacity="0.0" stroke="#EF6628" stroke-opacity="0.46" stroke-width="0.3"><path d="
M 252.00 661.00 
C 252.22 660.75 253.00 661.00 253.00 661.00
C 256.02 656.31 259.06 651.74 262.00 647.00
C 262.00 647.00 261.22 646.75 261.00 647.00
C 257.98 651.68 255.04 656.28 252.00 661.00 Z"/>
</g>
<g fill="None" fill-opacity="0.0" stroke="#EC7321" stroke-opacity="0.25" stroke-width="0.3"><path d="
M 369.00 648.00 
C 383.23 648.00 398.91 648.64 413.00 648.00 C 427.09 647.36 441.96 650.23 455.00 647.00
C 436.75 649.26 416.40 647.19 398.00 647.00 C 379.60 646.81 359.15 649.77 341.00 647.00
C 349.05 649.28 360.05 648.00 369.00 648.00 Z"/>
</g>
<g fill="None" fill-opacity="0.0" stroke="#E96022" stroke-opacity="0.43" stroke-width="0.3"><path d="
M 214.00 720.00 
C 222.31 712.05 226.87 700.10 233.75 690.75 C 240.62 681.40 246.67 670.80 253.00 661.00
C 253.00 661.00 252.22 660.75 252.00 661.00
C 245.73 670.72 238.31 680.73 232.77 690.77 C 227.23 700.81 217.89 709.23 214.00 720.00 Z"/>
</g>
<g fill="None" fill-opacity="0.0" stroke="#F38229" stroke-opacity="0.44" stroke-width="0.3"><path d="
M 559.00 677.00 
C 555.42 671.89 552.47 666.28 549.00 661.00
C 551.21 665.37 554.89 672.28 559.00 677.00 Z"/>
</g>
<g fill="None" fill-opacity="0.0" stroke="#E96022" stroke-opacity="0.44" stroke-width="0.3"><path d="
M 204.00 676.00 
C 206.98 671.52 210.02 666.70 213.00 662.00
C 208.75 665.32 206.36 671.38 204.00 676.00 Z"/>
</g>
<g fill="None" fill-opacity="0.0" stroke="#EC7321" stroke-opacity="0.50" stroke-width="0.3"><path d="
M 346.00 665.00 
C 380.67 665.00 415.33 665.00 450.00 665.00
C 447.27 660.93 435.21 665.22 430.00 664.00 C 424.79 662.78 416.11 664.51 410.00 664.00 C 403.89 663.49 395.42 664.20 389.00 664.00 C 382.58 663.80 375.48 664.00 369.00 664.00
C 365.68 664.00 360.09 663.58 357.00 664.00 C 353.91 664.42 347.65 662.42 346.00 665.00 Z"/>
</g>
<g fill="None" fill-opacity="0.0" stroke="#000000" stroke-opacity="0.00" stroke-width="0.3"><path d="
M 351.00 678.00 
C 352.17 679.46 353.57 680.84 355.00 682.00
C 356.00 682.81 357.98 684.56 359.00 685.00
C 360.31 685.56 362.53 685.64 364.00 686.00
C 365.79 686.44 367.15 686.81 369.00 687.00
C 377.08 687.82 387.07 686.36 395.00 687.00 C 402.93 687.64 413.70 686.11 421.00 687.00 C 428.30 687.89 437.29 685.33 441.75 681.75 C 446.22 678.17 453.10 669.62 450.00 665.00
C 415.33 665.00 380.67 665.00 346.00 665.00
C 344.55 667.27 349.47 676.11 351.00 678.00 Z"/>
</g>
<g fill="None" fill-opacity="0.0" stroke="#E96022" stroke-opacity="0.06" stroke-width="0.3"><path d="
M 148.00 672.00 
C 146.59 670.59 145.12 668.60 144.00 667.00
C 144.00 667.00 143.16 667.23 143.00 667.00
C 144.62 668.62 146.18 670.44 148.00 672.00 Z"/>
</g>
<g fill="None" fill-opacity="0.0" stroke="#E85526" stroke-opacity="0.54" stroke-width="0.3"><path d="
M 148.00 672.00 
C 152.63 675.96 157.33 680.20 162.00 684.00
C 157.49 679.07 150.22 670.04 144.00 667.00
C 145.12 668.60 146.59 670.59 148.00 672.00 Z"/>
</g>
<g fill="None" fill-opacity="0.0" stroke="#E97024" stroke-opacity="0.52" stroke-width="0.3"><path d="
M 355.00 682.00 
C 353.57 680.84 352.17 679.46 351.00 678.00
C 351.84 679.56 353.35 681.09 355.00 682.00 Z"/>
</g>
<g fill="None" fill-opacity="0.0" stroke="#F38229" stroke-opacity="0.46" stroke-width="0.3"><path d="
M 572.00 697.00 
C 568.42 691.89 565.47 686.28 562.00 681.00
C 564.25 685.44 567.84 692.22 572.00 697.00 Z"/>
</g>
<g fill="None" fill-opacity="0.0" stroke="#E96022" stroke-opacity="0.46" stroke-width="0.3"><path d="
M 190.00 698.00 
C 193.42 692.70 196.52 687.23 200.00 682.00
C 195.98 686.85 192.27 693.39 190.00 698.00 Z"/>
</g>
<g fill="None" fill-opacity="0.0" stroke="#E97024" stroke-opacity="0.51" stroke-width="0.3"><path d="
M 364.00 686.00 
C 362.53 685.64 360.31 685.56 359.00 685.00
C 361.12 686.29 362.46 685.79 364.00 686.00 Z"/>
</g>
<g fill="None" fill-opacity="0.0" stroke="#F38229" stroke-opacity="0.45" stroke-width="0.3"><path d="
M 585.00 717.00 
C 582.09 711.39 578.49 706.31 575.00 701.00
C 577.23 705.40 581.62 711.88 585.00 717.00 Z"/>
</g>
<g fill="None" fill-opacity="0.0" stroke="#E96022" stroke-opacity="0.42" stroke-width="0.3"><path d="
M 253.00 741.00 
C 247.65 736.70 239.30 733.98 233.08 730.92 C 226.85 727.87 220.70 722.36 214.00 721.00
C 218.27 725.78 227.25 728.74 232.92 732.08 C 238.60 735.41 246.63 739.51 253.00 741.00 Z"/>
</g>
<g fill="None" fill-opacity="0.0" stroke="#F38229" stroke-opacity="0.45" stroke-width="0.3"><path d="
M 580.00 725.00 
C 581.34 724.34 585.13 723.41 586.00 722.00
C 584.78 720.60 581.08 723.70 580.00 725.00 Z"/>
</g>
<g fill="None" fill-opacity="0.0" stroke="#F38229" stroke-opacity="0.45" stroke-width="0.3"><path d="
M 552.00 739.00 
C 561.14 734.87 569.99 730.67 579.00 726.00
C 572.87 725.66 558.05 735.36 552.00 739.00 Z"/>
</g>
<g fill="None" fill-opacity="0.0" stroke="#EF6628" stroke-opacity="0.50" stroke-width="0.3"><path d="
M 271.00 748.00 
C 266.05 745.41 259.69 742.34 254.00 741.00
C 258.76 744.83 265.40 745.80 271.00 748.00 Z"/>
</g>
<g fill="None" fill-opacity="0.0" stroke="#F38229" stroke-opacity="0.50" stroke-width="0.3"><path d="
M 538.00 745.00 
C 541.02 743.77 544.19 742.21 547.00 741.00
C 543.72 742.01 540.82 743.46 538.00 745.00 Z"/>
</g>
<g fill="None" fill-opacity="0.0" stroke="#F38229" stroke-opacity="0.44" stroke-width="0.3"><path d="
M 522.00 751.00 
C 523.71 750.41 525.54 749.55 527.00 749.00
C 525.10 749.50 523.54 750.28 522.00 751.00 Z"/>
</g>
<g fill="None" fill-opacity="0.0" stroke="#EF6628" stroke-opacity="0.45" stroke-width="0.3"><path d="
M 278.00 751.00 
C 279.71 751.65 281.29 752.39 283.00 753.00
C 281.29 752.18 279.28 751.31 278.00 751.00 Z"/>
</g>
<g fill="None" fill-opacity="0.0" stroke="#F38229" stroke-opacity="0.44" stroke-width="0.3"><path d="
M 507.00 756.00 
C 508.66 755.54 510.38 755.49 512.00 755.00
C 511.00 755.21 508.73 755.32 507.00 756.00 Z"/>
</g>
<g fill="None" fill-opacity="0.0" stroke="#F38229" stroke-opacity="0.47" stroke-width="0.3"><path d="
M 480.00 763.00 
C 486.56 761.66 492.94 759.67 499.00 758.00
C 492.50 759.03 485.91 761.08 480.00 763.00 Z"/>
</g>
<g fill="None" fill-opacity="0.0" stroke="#E97024" stroke-opacity="0.65" stroke-width="0.3"><path d="
M 361.00 770.00 
C 362.99 770.17 365.02 769.83 367.00 770.00
C 365.14 769.66 362.64 770.02 361.00 770.00 Z"/>
</g>
<g fill="None" fill-opacity="0.0" stroke="#EC7321" stroke-opacity="0.34" stroke-width="0.3"><path d="
M 416.00 771.00 
C 405.67 771.00 395.33 771.00 385.00 771.00
C 394.67 772.03 406.26 771.94 416.00 771.00 Z"/>
</g>
<g fill="#000000" fill-opacity="0.00" stroke="None"><path d="
M 0.00 805.00 
L 800.00 805.00
L 800.00 0.00
L 0.00 0.00
L 0.00 805.00
M 411.00 35.00 
C 413.00 35.00 415.00 35.00 417.00 35.00
C 418.67 35.00 420.33 35.00 422.00 35.00
C 441.39 35.00 460.50 39.23 479.00 43.00
C 481.73 43.56 484.69 44.43 487.00 45.00
C 488.90 45.27 490.23 45.60 492.00 46.00
C 495.35 46.76 499.39 46.88 502.00 49.00
C 502.49 49.08 503.00 49.00 503.00 49.00
C 506.43 49.13 509.19 51.09 512.00 52.00
C 517.20 53.19 522.42 54.81 527.00 57.00
C 529.22 57.79 531.74 58.11 534.00 59.00
C 536.10 59.82 538.27 61.06 540.00 62.00
C 544.26 63.73 548.76 65.02 553.00 67.00
C 554.25 67.59 555.04 68.30 556.00 69.00
C 561.96 72.29 568.82 74.80 575.00 78.00
C 575.33 78.17 575.77 78.72 576.00 79.00
C 578.89 80.03 581.21 81.61 584.00 83.00
C 584.33 83.17 584.73 83.87 585.00 84.00
C 589.60 86.29 581.26 95.56 579.00 99.00
C 578.03 100.47 577.04 101.81 576.00 103.00
C 572.41 108.12 569.45 113.75 566.00 119.00
C 565.03 120.47 564.04 121.81 563.00 123.00
C 559.41 128.12 556.45 133.75 553.00 139.00
C 552.03 140.47 551.04 141.81 550.00 143.00
C 546.39 148.15 543.64 153.83 540.00 159.00
C 539.79 159.30 539.29 159.77 539.00 160.00
C 535.61 165.34 532.48 170.71 529.00 176.00
C 528.03 177.47 527.04 178.81 526.00 180.00
C 522.41 185.12 519.45 190.75 516.00 196.00
C 515.03 197.47 514.04 198.81 513.00 200.00
C 509.41 205.12 506.45 210.75 503.00 216.00
C 502.03 217.47 501.04 218.81 500.00 220.00
C 492.04 231.35 484.69 243.68 477.00 255.00
C 476.12 256.63 475.35 260.51 473.00 261.00
C 470.39 261.55 466.91 257.94 465.00 257.00
C 450.67 251.84 436.37 245.81 421.00 244.00
C 418.52 243.71 415.93 243.42 414.00 243.00
C 413.00 243.03 412.00 243.00 411.00 243.00
C 403.67 243.00 396.33 243.00 389.00 243.00
C 388.50 243.00 387.50 243.03 387.00 243.00
C 384.92 243.89 382.69 244.17 380.00 244.00
C 379.50 243.97 378.50 244.02 378.00 244.00
C 375.33 244.77 372.05 245.30 369.00 246.00
C 366.09 246.67 362.94 247.25 360.00 248.00
C 357.06 249.14 353.16 249.80 350.00 251.00
C 342.84 253.71 329.64 265.12 324.25 256.75 C 318.85 248.39 313.67 240.08 308.23 231.77 C 302.79 223.46 297.51 215.20 292.08 206.92 C 286.66 198.64 281.36 190.30 276.00 182.00
C 274.93 180.34 274.10 178.56 273.00 177.00
C 272.00 175.85 270.90 174.37 270.00 173.00
C 268.48 170.69 267.33 168.19 266.00 166.00
C 249.35 138.54 228.10 112.75 214.00 84.00
C 226.42 78.55 238.26 70.92 251.00 66.00
C 255.03 64.26 258.73 62.00 263.00 61.00
C 263.47 60.89 264.00 61.00 264.00 61.00
C 266.10 59.20 268.39 58.96 271.00 58.00
C 282.32 52.34 295.31 48.88 308.02 46.02 C 320.74 43.17 336.53 37.48 350.00 38.00
C 350.50 38.02 351.50 37.97 352.00 38.00
C 353.84 37.26 355.56 36.85 358.00 37.00
C 358.50 37.03 359.50 37.00 360.00 37.00
C 362.66 35.87 365.73 36.00 369.00 36.00
C 369.50 36.00 370.50 36.00 371.00 36.00
C 373.41 34.98 376.00 35.00 379.00 35.00
C 380.67 35.00 382.33 35.00 384.00 35.00
C 386.00 35.00 388.00 35.00 390.00 35.00
C 396.61 34.36 404.46 34.37 411.00 35.00
M 207.00 135.00 
C 208.00 136.15 209.10 137.63 210.00 139.00
C 213.47 144.28 216.42 149.89 220.00 155.00
C 221.00 156.15 222.10 157.63 223.00 159.00
C 233.88 175.55 244.83 192.23 255.00 209.00
C 257.63 213.33 261.17 217.61 264.00 222.00
C 267.68 227.70 271.33 233.30 275.00 239.00
C 276.33 241.06 277.73 242.94 279.00 245.00
C 281.94 249.74 284.98 254.31 288.00 259.00
C 294.49 269.06 304.22 277.96 294.25 286.25 C 284.28 294.54 279.56 302.14 273.00 312.00
C 268.97 318.05 266.49 324.52 262.70 330.70 C 258.90 336.87 258.38 346.60 254.00 352.00
C 253.98 352.50 254.00 353.00 254.00 353.00
C 253.38 356.77 251.75 360.69 251.00 364.00
C 250.74 366.11 250.27 368.07 250.00 370.00
C 249.67 372.40 250.54 374.20 249.00 376.00
C 249.05 376.49 249.00 377.00 249.00 377.00
C 249.00 379.50 250.08 385.54 248.00 387.00
C 243.20 390.36 233.20 385.57 227.00 387.00 C 220.80 388.43 211.81 386.36 205.00 387.00 C 198.19 387.64 190.07 386.71 183.00 387.00 C 175.93 387.29 168.16 386.88 161.00 387.00 C 153.84 387.12 146.14 386.97 139.00 387.00 C 131.86 387.03 125.08 387.06 118.00 387.00 C 110.92 386.94 102.96 387.17 96.00 387.00 C 89.04 386.83 80.59 387.40 74.00 387.00 C 67.41 386.60 57.73 387.89 52.00 387.00 C 46.27 386.11 33.74 389.88 32.00 385.00
C 31.28 382.98 32.77 381.26 33.00 380.00
C 33.00 379.00 33.00 378.00 33.00 377.00
C 33.00 373.42 32.77 369.90 34.00 367.00
C 34.00 366.50 34.03 365.50 34.00 365.00
C 33.83 362.25 34.11 360.10 35.00 358.00
C 34.97 357.50 35.00 356.50 35.00 356.00
C 35.00 354.50 34.63 352.45 35.00 351.00
C 35.14 350.45 35.73 349.49 36.00 349.00
C 36.52 346.89 35.44 345.61 37.00 344.00
C 36.94 343.51 37.00 343.00 37.00 343.00
C 36.74 340.89 37.76 339.38 38.00 338.00
C 38.91 325.10 42.25 310.54 47.00 299.00
C 47.57 297.12 48.54 294.58 49.00 293.00
C 51.51 280.45 56.60 265.89 63.00 255.00
C 63.85 253.06 65.22 250.74 66.00 249.00
C 68.16 242.26 71.56 236.03 75.00 230.00
C 75.83 228.53 77.26 226.41 78.00 225.00
C 89.48 196.10 113.65 171.81 134.00 148.00
C 137.37 144.06 141.11 140.33 145.00 137.00
C 154.00 129.31 161.99 119.95 172.00 114.00
C 176.79 110.43 181.12 104.87 187.00 103.00
C 193.04 114.08 201.11 123.86 207.00 135.00
M 769.00 387.00 
C 755.19 387.04 741.85 386.95 728.00 387.00 C 714.15 387.05 699.91 386.91 686.00 387.00 C 672.09 387.09 657.90 386.81 644.00 387.00 C 630.10 387.19 616.93 386.58 603.00 387.00 C 589.07 387.42 575.01 386.08 561.00 387.00 C 546.99 387.92 551.97 367.94 548.02 357.98 C 544.08 348.01 542.35 337.05 537.08 327.92 C 531.80 318.80 527.38 310.10 520.75 302.25 C 514.12 294.40 508.75 286.18 500.00 281.00
C 535.91 220.89 576.86 162.78 614.00 103.00
C 707.52 167.44 764.52 275.40 769.00 387.00
M 250.00 420.00 
C 252.75 422.57 251.49 429.54 252.98 433.02 C 254.47 436.51 255.73 441.29 257.00 445.00
C 258.01 447.94 258.76 451.12 260.00 454.00
C 261.48 457.43 263.30 460.68 265.00 464.00
C 266.60 467.13 268.16 470.03 270.00 473.00
C 271.03 474.67 271.94 476.35 273.00 478.00
C 276.64 483.64 280.60 488.85 285.00 494.00
C 288.73 498.37 292.45 502.68 296.00 507.00
C 299.80 511.62 306.73 516.48 304.00 522.00
C 302.88 524.27 301.27 526.09 300.00 528.00
C 296.94 532.60 293.97 537.54 291.00 542.00
C 286.60 548.61 282.29 555.55 278.00 562.00
C 276.05 564.92 273.71 568.17 272.00 571.00
C 270.69 573.16 269.46 575.73 268.00 578.00
C 254.39 599.10 240.77 620.04 227.00 641.00
C 226.03 642.47 225.03 643.81 224.00 645.00
C 220.39 650.15 217.65 655.83 214.00 661.00
C 213.79 661.30 213.29 661.78 213.00 662.00
C 210.02 666.70 206.98 671.52 204.00 676.00
C 202.68 677.99 201.22 680.16 200.00 682.00
C 196.52 687.23 193.42 692.70 190.00 698.00
C 188.91 699.68 187.68 701.12 187.00 703.00
C 178.01 698.20 169.44 691.10 162.00 684.00
C 157.33 680.20 152.63 675.96 148.00 672.00
C 146.18 670.44 144.62 668.62 143.00 667.00
C 120.66 644.66 101.90 621.22 86.00 595.00
C 80.99 588.27 76.88 580.58 73.00 573.00
C 71.49 570.05 70.42 566.87 69.00 564.00
C 59.64 549.78 54.86 533.11 49.22 516.78 C 43.58 500.44 38.24 479.67 37.00 462.00
C 36.76 460.63 35.75 459.05 36.00 457.00
C 36.06 456.51 36.00 456.00 36.00 456.00
C 34.71 454.48 34.87 452.16 35.00 450.00
C 35.03 449.50 34.97 448.50 35.00 448.00
C 34.11 445.92 33.83 443.69 34.00 441.00
C 34.03 440.50 34.00 439.50 34.00 439.00
C 32.87 436.34 33.00 433.27 33.00 430.00
C 33.00 428.67 33.00 427.33 33.00 426.00
C 32.83 424.76 31.37 422.96 32.00 421.00
C 32.24 416.83 46.93 419.58 52.00 419.00 C 57.07 418.42 67.69 419.26 74.00 419.00 C 80.31 418.74 89.14 419.11 96.00 419.00 C 102.86 418.89 110.89 419.03 118.00 419.00 C 125.11 418.97 132.80 418.97 140.00 419.00 C 147.20 419.03 154.80 418.89 162.00 419.00 C 169.20 419.11 176.89 418.75 184.00 419.00 C 191.11 419.25 199.13 418.43 206.00 419.00 C 212.87 419.57 221.67 417.73 228.00 419.00 C 234.33 420.27 245.56 415.85 250.00 420.00
M 769.00 419.00 
C 764.48 530.42 707.79 638.88 614.00 703.00
C 574.72 641.40 534.29 580.58 495.00 519.00
C 501.58 511.57 506.55 504.21 513.75 496.75 C 520.95 489.29 525.69 481.15 531.31 472.31 C 536.92 463.46 540.32 454.45 544.32 444.32 C 548.32 434.19 546.75 417.16 561.00 419.00 C 575.25 420.84 587.97 418.19 602.00 419.00 C 616.03 419.81 630.06 418.62 644.00 419.00 C 657.94 419.38 671.08 418.83 685.00 419.00 C 698.92 419.17 713.04 418.91 727.00 419.00 C 740.96 419.09 755.03 418.93 769.00 419.00
M 369.00 602.00 
C 377.53 602.00 385.40 601.80 394.00 602.00 C 402.60 602.20 411.28 601.51 420.00 602.00 C 428.72 602.49 436.01 600.83 445.00 602.00 C 453.99 603.17 461.76 602.00 461.99 592.99 C 462.23 583.98 465.92 581.15 467.78 573.78 C 469.63 566.40 471.53 561.45 475.00 555.00
C 475.78 553.56 476.20 551.51 478.00 551.00
C 483.91 562.15 491.97 571.94 498.00 583.00
C 498.29 583.23 498.79 583.70 499.00 584.00
C 502.66 589.20 505.40 594.86 509.00 600.00
C 510.00 601.15 511.10 602.63 512.00 604.00
C 515.50 609.32 518.62 614.67 522.00 620.00
C 522.29 620.23 522.79 620.70 523.00 621.00
C 526.67 626.21 529.55 631.74 533.00 637.00
C 534.00 638.15 535.10 639.63 536.00 641.00
C 539.47 646.28 542.42 651.89 546.00 657.00
C 547.00 658.15 548.10 659.63 549.00 661.00
C 552.47 666.28 555.42 671.89 559.00 677.00
C 560.00 678.15 561.10 679.63 562.00 681.00
C 565.47 686.28 568.42 691.89 572.00 697.00
C 573.00 698.15 574.10 699.63 575.00 701.00
C 578.49 706.31 582.09 711.39 585.00 717.00
C 586.16 719.23 587.54 719.52 586.00 722.00
C 585.13 723.41 581.34 724.34 580.00 725.00
C 579.77 725.28 579.33 725.83 579.00 726.00
C 569.99 730.67 561.14 734.87 552.00 739.00
C 550.16 740.11 549.19 740.33 547.00 741.00
C 544.19 742.21 541.02 743.77 538.00 745.00
C 534.54 746.89 531.00 747.95 527.00 749.00
C 525.54 749.55 523.71 750.41 522.00 751.00
C 519.00 752.40 515.43 753.96 512.00 755.00
C 510.38 755.49 508.66 755.54 507.00 756.00
C 504.17 756.79 502.00 757.52 499.00 758.00
C 492.94 759.67 486.56 761.66 480.00 763.00
C 458.98 767.28 438.21 771.00 416.00 771.00
C 406.26 771.94 394.67 772.03 385.00 771.00
C 383.33 771.00 381.67 771.00 380.00 771.00
C 375.44 771.00 371.25 770.35 367.00 770.00
C 365.02 769.83 362.99 770.17 361.00 770.00
C 334.88 767.82 307.51 761.65 283.00 753.00
C 281.29 752.39 279.71 751.65 278.00 751.00
C 275.61 750.09 273.09 749.09 271.00 748.00
C 265.40 745.80 258.76 744.83 254.00 741.00
C 253.53 740.89 253.00 741.00 253.00 741.00
C 246.63 739.51 238.60 735.41 232.92 732.08 C 227.25 728.74 218.27 725.78 214.00 721.00
C 213.75 720.72 214.00 720.00 214.00 720.00
C 217.89 709.23 227.23 700.81 232.77 690.77 C 238.31 680.73 245.73 670.72 252.00 661.00
C 255.04 656.28 257.98 651.68 261.00 647.00
C 263.63 642.93 266.23 638.94 269.00 635.00
C 269.21 634.70 269.71 634.22 270.00 634.00
C 271.48 631.75 272.51 629.27 274.00 627.00
C 274.97 625.53 275.96 624.19 277.00 623.00
C 278.10 621.43 278.96 619.61 280.00 618.00
C 294.51 595.52 308.93 571.34 325.00 551.00
C 328.57 558.49 329.77 566.05 333.32 573.68 C 336.87 581.30 336.69 591.29 339.99 599.01 C 343.29 606.72 361.88 599.45 369.00 602.00 Z"/>
</g>
<g fill="#EC7321" fill-opacity="0.23" stroke="None"><path d="
M 390.00 35.00 
C 397.00 35.00 404.00 35.00 411.00 35.00
C 404.46 34.37 396.61 34.36 390.00 35.00 Z"/>
</g>
<g fill="#EC7321" fill-opacity="0.38" stroke="None"><path d="
M 371.00 36.00 
C 373.66 36.00 376.34 36.11 379.00 36.00
C 379.04 36.00 379.00 35.00 379.00 35.00
C 376.00 35.00 373.41 34.98 371.00 36.00 Z"/>
</g>
<g fill="#E97024" fill-opacity="0.76" stroke="None"><path d="
M 379.00 36.00 
C 380.82 35.93 382.84 35.15 384.00 35.00
C 382.33 35.00 380.67 35.00 379.00 35.00
C 379.00 35.00 379.04 36.00 379.00 36.00 Z"/>
</g>
<g fill="#E67720" fill-opacity="1.00" stroke="None"><path d="
M 379.00 36.00 
C 376.34 36.11 373.66 36.00 371.00 36.00
C 370.50 36.00 369.50 36.00 369.00 36.00
C 366.34 37.13 363.27 37.00 360.00 37.00
C 359.50 37.00 358.50 37.03 358.00 37.00
C 356.16 37.74 354.44 38.15 352.00 38.00
C 351.50 37.97 350.50 38.02 350.00 38.00
C 349.52 38.08 348.12 39.84 347.00 39.00
C 347.00 109.67 347.00 180.33 347.00 251.00
C 348.00 251.00 349.00 251.00 350.00 251.00
C 353.16 249.80 357.06 249.14 360.00 248.00
C 362.61 246.99 365.98 245.69 369.00 245.00
C 371.81 244.36 375.02 243.89 378.00 244.00
C 378.50 244.02 379.50 243.97 380.00 244.00
C 382.08 243.12 384.31 242.83 387.00 243.00
C 387.50 243.03 388.50 243.00 389.00 243.00
C 394.73 240.56 405.25 241.74 411.00 243.00
C 412.00 243.00 413.00 243.03 414.00 243.00
C 416.69 242.93 418.99 243.58 421.00 244.00
C 436.37 245.81 450.67 251.84 465.00 257.00
C 467.70 257.97 471.06 258.86 473.00 261.00
C 475.35 260.51 476.12 256.63 477.00 255.00
C 483.37 243.19 491.32 229.98 500.00 220.00
C 501.04 218.81 502.03 217.47 503.00 216.00
C 505.27 211.51 508.91 204.70 513.00 200.00
C 514.04 198.81 515.03 197.47 516.00 196.00
C 518.30 191.45 521.86 184.76 526.00 180.00
C 527.04 178.81 528.03 177.47 529.00 176.00
C 531.09 171.88 534.24 163.72 539.00 160.00
C 539.29 159.77 539.79 159.30 540.00 159.00
C 539.76 154.96 546.89 146.58 550.00 143.00
C 551.04 141.81 552.03 140.47 553.00 139.00
C 555.27 134.51 558.91 127.70 563.00 123.00
C 564.04 121.81 565.03 120.47 566.00 119.00
C 568.27 114.51 571.91 107.70 576.00 103.00
C 577.04 101.81 578.03 100.47 579.00 99.00
C 580.05 96.92 586.91 86.96 585.00 84.00
C 584.73 83.87 584.33 83.17 584.00 83.00
C 581.75 83.13 577.95 81.35 576.00 79.00
C 575.77 78.72 575.33 78.17 575.00 78.00
C 570.32 78.27 560.30 72.15 556.00 69.00
C 555.04 68.30 554.25 67.59 553.00 67.00
C 549.45 65.86 544.03 64.20 540.00 62.00
C 538.27 61.06 536.10 59.82 534.00 59.00
C 532.42 58.58 529.31 58.11 527.00 57.00
C 522.42 54.81 517.20 53.19 512.00 52.00
C 508.93 51.30 505.38 50.94 503.00 49.00
C 503.00 49.00 502.49 49.08 502.00 49.00
C 498.36 48.40 495.13 47.11 492.00 46.00
C 490.23 45.60 488.90 45.27 487.00 45.00
C 483.99 44.58 481.51 43.81 479.00 43.00
C 460.50 39.23 441.39 35.00 422.00 35.00
C 420.50 35.13 418.45 35.13 417.00 35.00
C 415.00 35.00 413.00 35.00 411.00 35.00
C 404.00 35.00 397.00 35.00 390.00 35.00
C 388.00 35.00 386.00 35.00 384.00 35.00
C 382.84 35.15 380.82 35.93 379.00 36.00 Z"/>
</g>
<g fill="#EC7321" fill-opacity="0.76" stroke="None"><path d="
M 422.00 35.00 
C 420.33 35.00 418.67 35.00 417.00 35.00
C 418.45 35.13 420.50 35.13 422.00 35.00 Z"/>
</g>
<g fill="#E97024" fill-opacity="0.51" stroke="None"><path d="
M 360.00 37.00 
C 363.27 37.00 366.34 37.13 369.00 36.00
C 365.73 36.00 362.66 35.87 360.00 37.00 Z"/>
</g>
<g fill="#E97024" fill-opacity="0.47" stroke="None"><path d="
M 352.00 38.00 
C 354.44 38.15 356.16 37.74 358.00 37.00
C 355.56 36.85 353.84 37.26 352.00 38.00 Z"/>
</g>
<g fill="#E86622" fill-opacity="0.99" stroke="None"><path d="
M 271.00 58.00 
C 268.73 59.14 266.83 60.54 264.00 61.00
C 264.00 61.00 263.47 60.89 263.00 61.00
C 259.72 63.63 255.00 65.27 251.00 67.00
C 238.75 72.29 226.78 78.57 215.00 85.00
C 230.34 112.73 250.16 138.55 266.00 166.00
C 267.57 168.32 269.31 171.54 270.00 173.00
C 270.90 174.37 272.00 175.85 273.00 177.00
C 274.53 178.76 275.56 181.12 276.00 182.00
C 281.36 190.30 286.66 198.64 292.08 206.92 C 297.51 215.20 302.79 223.46 308.23 231.77 C 313.67 240.08 318.85 248.39 324.25 256.75 C 329.64 265.12 342.84 253.71 350.00 251.00
C 349.00 251.00 348.00 251.00 347.00 251.00
C 347.00 180.33 347.00 109.67 347.00 39.00
C 348.12 39.84 349.52 38.08 350.00 38.00
C 336.53 37.48 320.74 43.17 308.02 46.02 C 295.31 48.88 282.32 52.34 271.00 58.00 Z"/>
</g>
<g fill="#F38229" fill-opacity="0.49" stroke="None"><path d="
M 487.00 45.00 
C 484.69 44.43 481.73 43.56 479.00 43.00
C 481.51 43.81 483.99 44.58 487.00 45.00 Z"/>
</g>
<g fill="#F38229" fill-opacity="0.49" stroke="None"><path d="
M 502.00 49.00 
C 499.39 46.88 495.35 46.76 492.00 46.00
C 495.13 47.11 498.36 48.40 502.00 49.00 Z"/>
</g>
<g fill="#F38229" fill-opacity="0.47" stroke="None"><path d="
M 512.00 52.00 
C 509.19 51.09 506.43 49.13 503.00 49.00
C 505.38 50.94 508.93 51.30 512.00 52.00 Z"/>
</g>
<g fill="#F38229" fill-opacity="0.52" stroke="None"><path d="
M 534.00 59.00 
C 531.74 58.11 529.22 57.79 527.00 57.00
C 529.31 58.11 532.42 58.58 534.00 59.00 Z"/>
</g>
<g fill="#EF6628" fill-opacity="0.52" stroke="None"><path d="
M 264.00 61.00 
C 266.83 60.54 268.73 59.14 271.00 58.00
C 268.39 58.96 266.10 59.20 264.00 61.00 Z"/>
</g>
<g fill="#E96022" fill-opacity="0.50" stroke="None"><path d="
M 251.00 66.00 
C 250.78 66.12 251.00 67.00 251.00 67.00
C 255.00 65.27 259.72 63.63 263.00 61.00
C 258.73 62.00 255.03 64.26 251.00 66.00 Z"/>
</g>
<g fill="#F38229" fill-opacity="0.49" stroke="None"><path d="
M 553.00 67.00 
C 548.76 65.02 544.26 63.73 540.00 62.00
C 544.03 64.20 549.45 65.86 553.00 67.00 Z"/>
</g>
<g fill="#E96022" fill-opacity="0.45" stroke="None"><path d="
M 266.00 166.00 
C 250.16 138.55 230.34 112.73 215.00 85.00
C 226.78 78.57 238.75 72.29 251.00 67.00
C 251.00 67.00 250.78 66.12 251.00 66.00
C 238.26 70.92 226.42 78.55 214.00 84.00
C 228.10 112.75 249.35 138.54 266.00 166.00 Z"/>
</g>
<g fill="#F38229" fill-opacity="0.55" stroke="None"><path d="
M 575.00 78.00 
C 568.82 74.80 561.96 72.29 556.00 69.00
C 560.30 72.15 570.32 78.27 575.00 78.00 Z"/>
</g>
<g fill="#F38229" fill-opacity="0.47" stroke="None"><path d="
M 584.00 83.00 
C 581.21 81.61 578.89 80.03 576.00 79.00
C 577.95 81.35 581.75 83.13 584.00 83.00 Z"/>
</g>
<g fill="#F38229" fill-opacity="0.46" stroke="None"><path d="
M 579.00 99.00 
C 581.26 95.56 589.60 86.29 585.00 84.00
C 586.91 86.96 580.05 96.92 579.00 99.00 Z"/>
</g>
<g fill="#E96022" fill-opacity="0.42" stroke="None"><path d="
M 172.00 114.00 
C 177.17 110.93 181.71 106.52 187.00 104.00
C 192.50 114.75 199.80 125.39 207.00 135.00
C 201.11 123.86 193.04 114.08 187.00 103.00
C 181.12 104.87 176.79 110.43 172.00 114.00 Z"/>
</g>
<g fill="#F38229" fill-opacity="0.44" stroke="None"><path d="
M 566.00 119.00 
C 569.45 113.75 572.41 108.12 576.00 103.00
C 571.91 107.70 568.27 114.51 566.00 119.00 Z"/>
</g>
<g fill="#F38229" fill-opacity="0.99" stroke="None"><path d="
M 769.00 387.00 
C 764.52 275.40 707.52 167.44 614.00 103.00
C 576.86 162.78 535.91 220.89 500.00 281.00
C 508.75 286.18 514.12 294.40 520.75 302.25 C 527.38 310.10 531.80 318.80 537.08 327.92 C 542.35 337.05 544.08 348.01 548.02 357.98 C 551.97 367.94 546.99 387.92 561.00 387.00 C 575.01 386.08 589.07 387.42 603.00 387.00 C 616.93 386.58 630.10 387.19 644.00 387.00 C 657.90 386.81 672.09 387.09 686.00 387.00 C 699.91 386.91 714.15 387.05 728.00 387.00 C 741.85 386.95 755.19 387.04 769.00 387.00 Z"/>
</g>
<g fill="#E85526" fill-opacity="1.00" stroke="None"><path d="
M 172.00 114.00 
C 161.99 119.95 154.00 129.31 145.00 137.00
C 141.41 140.59 137.54 144.46 134.00 148.00
C 113.65 171.81 89.48 196.10 78.00 225.00
C 77.12 227.23 76.30 228.19 75.00 230.00
C 71.56 236.03 68.16 242.26 66.00 249.00
C 65.25 251.34 64.15 253.05 63.00 255.00
C 56.60 265.89 51.51 280.45 49.00 293.00
C 48.53 295.36 47.80 297.06 47.00 299.00
C 42.25 310.54 38.91 325.10 38.00 338.00
C 37.85 340.10 38.43 341.52 37.00 343.00
C 37.00 343.00 36.94 343.51 37.00 344.00
C 37.27 346.19 36.85 347.44 36.00 349.00
C 35.73 349.49 35.14 350.45 35.00 351.00
C 34.98 352.85 36.01 353.76 35.00 356.00
C 35.00 356.50 34.97 357.50 35.00 358.00
C 35.17 360.75 34.89 362.90 34.00 365.00
C 34.03 365.50 34.00 366.50 34.00 367.00
C 34.00 370.60 33.64 374.08 33.00 377.00
C 33.00 378.00 33.00 379.00 33.00 380.00
C 33.00 380.86 32.04 385.16 32.00 385.00
C 33.74 389.88 46.27 386.11 52.00 387.00 C 57.73 387.89 67.41 386.60 74.00 387.00 C 80.59 387.40 89.04 386.83 96.00 387.00 C 102.96 387.17 110.92 386.94 118.00 387.00 C 125.08 387.06 131.86 387.03 139.00 387.00 C 146.14 386.97 153.84 387.12 161.00 387.00 C 168.16 386.88 175.93 387.29 183.00 387.00 C 190.07 386.71 198.19 387.64 205.00 387.00 C 211.81 386.36 220.80 388.43 227.00 387.00 C 233.20 385.57 243.20 390.36 248.00 387.00
C 248.36 383.64 247.08 379.60 249.00 377.00
C 249.00 377.00 249.05 376.49 249.00 376.00
C 248.73 373.55 249.57 371.75 250.00 370.00
C 250.27 368.07 250.74 366.11 251.00 364.00
C 251.45 360.32 251.73 355.79 254.00 353.00
C 254.00 353.00 253.98 352.50 254.00 352.00
C 254.52 338.27 265.67 322.79 273.00 312.00
C 280.58 300.84 288.50 288.61 300.00 280.00
C 296.78 272.54 290.70 266.35 287.00 259.00
C 284.06 254.24 280.94 249.70 278.00 245.00
C 276.42 243.59 275.22 240.89 274.00 239.00
C 270.31 233.28 266.56 227.75 263.00 222.00
C 260.36 217.73 257.70 212.97 255.00 209.00
C 244.19 193.08 231.14 175.09 223.00 159.00
C 222.10 157.63 221.00 156.15 220.00 155.00
C 215.89 150.28 212.21 143.37 210.00 139.00
C 209.10 137.63 208.00 136.15 207.00 135.00
C 199.80 125.39 192.50 114.75 187.00 104.00
C 181.71 106.52 177.17 110.93 172.00 114.00 Z"/>
</g>
<g fill="#F38229" fill-opacity="0.45" stroke="None"><path d="
M 553.00 139.00 
C 556.45 133.75 559.41 128.12 563.00 123.00
C 558.91 127.70 555.27 134.51 553.00 139.00 Z"/>
</g>
<g fill="#EC5D26" fill-opacity="0.06" stroke="None"><path d="
M 134.00 148.00 
C 137.54 144.46 141.41 140.59 145.00 137.00
C 141.11 140.33 137.37 144.06 134.00 148.00 Z"/>
</g>
<g fill="#E96022" fill-opacity="0.45" stroke="None"><path d="
M 220.00 155.00 
C 216.42 149.89 213.47 144.28 210.00 139.00
C 212.21 143.37 215.89 150.28 220.00 155.00 Z"/>
</g>
<g fill="#F38229" fill-opacity="0.46" stroke="None"><path d="
M 540.00 159.00 
C 543.64 153.83 546.39 148.15 550.00 143.00
C 546.89 146.58 539.76 154.96 540.00 159.00 Z"/>
</g>
<g fill="#E96022" fill-opacity="0.43" stroke="None"><path d="
M 255.00 209.00 
C 244.83 192.23 233.88 175.55 223.00 159.00
C 231.14 175.09 244.19 193.08 255.00 209.00 Z"/>
</g>
<g fill="#F38229" fill-opacity="0.45" stroke="None"><path d="
M 529.00 176.00 
C 532.48 170.71 535.61 165.34 539.00 160.00
C 534.24 163.72 531.09 171.88 529.00 176.00 Z"/>
</g>
<g fill="#E86622" fill-opacity="0.46" stroke="None"><path d="
M 270.00 173.00 
C 269.31 171.54 267.57 168.32 266.00 166.00
C 267.33 168.19 268.48 170.69 270.00 173.00 Z"/>
</g>
<g fill="#EF6628" fill-opacity="0.51" stroke="None"><path d="
M 276.00 182.00 
C 275.56 181.12 274.53 178.76 273.00 177.00
C 274.10 178.56 274.93 180.34 276.00 182.00 Z"/>
</g>
<g fill="#F38229" fill-opacity="0.46" stroke="None"><path d="
M 516.00 196.00 
C 519.45 190.75 522.41 185.12 526.00 180.00
C 521.86 184.76 518.30 191.45 516.00 196.00 Z"/>
</g>
<g fill="#F38229" fill-opacity="0.45" stroke="None"><path d="
M 503.00 216.00 
C 506.45 210.75 509.41 205.12 513.00 200.00
C 508.91 204.70 505.27 211.51 503.00 216.00 Z"/>
</g>
<g fill="#E96022" fill-opacity="0.40" stroke="None"><path d="
M 263.00 222.00 
C 263.22 222.25 264.00 222.00 264.00 222.00
C 261.17 217.61 257.63 213.33 255.00 209.00
C 257.70 212.97 260.36 217.73 263.00 222.00 Z"/>
</g>
<g fill="#F38229" fill-opacity="0.43" stroke="None"><path d="
M 477.00 255.00 
C 484.69 243.68 492.04 231.35 500.00 220.00
C 491.32 229.98 483.37 243.19 477.00 255.00 Z"/>
</g>
<g fill="#EF6628" fill-opacity="0.45" stroke="None"><path d="
M 274.00 239.00 
C 274.22 239.25 275.00 239.00 275.00 239.00
C 271.33 233.30 267.68 227.70 264.00 222.00
C 264.00 222.00 263.22 222.25 263.00 222.00
C 266.56 227.75 270.31 233.28 274.00 239.00 Z"/>
</g>
<g fill="#E54B21" fill-opacity="0.49" stroke="None"><path d="
M 75.00 230.00 
C 76.30 228.19 77.12 227.23 78.00 225.00
C 77.26 226.41 75.83 228.53 75.00 230.00 Z"/>
</g>
<g fill="#E86622" fill-opacity="0.40" stroke="None"><path d="
M 278.00 245.00 
C 278.28 245.25 279.00 245.00 279.00 245.00
C 277.73 242.94 276.33 241.06 275.00 239.00
C 275.00 239.00 274.22 239.25 274.00 239.00
C 275.22 240.89 276.42 243.59 278.00 245.00 Z"/>
</g>
<g fill="#EC7321" fill-opacity="0.61" stroke="None"><path d="
M 389.00 243.00 
C 396.33 243.00 403.67 243.00 411.00 243.00
C 405.25 241.74 394.73 240.56 389.00 243.00 Z"/>
</g>
<g fill="#EC7321" fill-opacity="0.44" stroke="None"><path d="
M 380.00 244.00 
C 382.69 244.17 384.92 243.89 387.00 243.00
C 384.31 242.83 382.08 243.12 380.00 244.00 Z"/>
</g>
<g fill="#EC7321" fill-opacity="0.45" stroke="None"><path d="
M 421.00 244.00 
C 418.99 243.58 416.69 242.93 414.00 243.00
C 415.93 243.42 418.52 243.71 421.00 244.00 Z"/>
</g>
<g fill="#EC7321" fill-opacity="0.47" stroke="None"><path d="
M 369.00 245.00 
C 368.94 245.01 369.00 246.00 369.00 246.00
C 372.05 245.30 375.33 244.77 378.00 244.00
C 375.02 243.89 371.81 244.36 369.00 245.00 Z"/>
</g>
<g fill="#EF6628" fill-opacity="0.44" stroke="None"><path d="
M 287.00 259.00 
C 287.22 259.25 288.00 259.00 288.00 259.00
C 284.98 254.31 281.94 249.74 279.00 245.00
C 279.00 245.00 278.28 245.25 278.00 245.00
C 280.94 249.70 284.06 254.24 287.00 259.00 Z"/>
</g>
<g fill="#E97024" fill-opacity="0.49" stroke="None"><path d="
M 360.00 248.00 
C 362.94 247.25 366.09 246.67 369.00 246.00
C 369.00 246.00 368.94 245.01 369.00 245.00
C 365.98 245.69 362.61 246.99 360.00 248.00 Z"/>
</g>
<g fill="#E54B21" fill-opacity="0.53" stroke="None"><path d="
M 63.00 255.00 
C 64.15 253.05 65.25 251.34 66.00 249.00
C 65.22 250.74 63.85 253.06 63.00 255.00 Z"/>
</g>
<g fill="#F38229" fill-opacity="0.29" stroke="None"><path d="
M 473.00 261.00 
C 471.06 258.86 467.70 257.97 465.00 257.00
C 466.91 257.94 470.39 261.55 473.00 261.00 Z"/>
</g>
<g fill="#E86622" fill-opacity="0.46" stroke="None"><path d="
M 273.00 312.00 
C 279.56 302.14 284.28 294.54 294.25 286.25 C 304.22 277.96 294.49 269.06 288.00 259.00
C 288.00 259.00 287.22 259.25 287.00 259.00
C 290.70 266.35 296.78 272.54 300.00 280.00
C 288.50 288.61 280.58 300.84 273.00 312.00 Z"/>
</g>
<g fill="#E54B21" fill-opacity="0.53" stroke="None"><path d="
M 47.00 299.00 
C 47.80 297.06 48.53 295.36 49.00 293.00
C 48.54 294.58 47.57 297.12 47.00 299.00 Z"/>
</g>
<g fill="#EF6628" fill-opacity="0.49" stroke="None"><path d="
M 254.00 352.00 
C 258.38 346.60 258.90 336.87 262.70 330.70 C 266.49 324.52 268.97 318.05 273.00 312.00
C 265.67 322.79 254.52 338.27 254.00 352.00 Z"/>
</g>
<g fill="#E54B21" fill-opacity="0.54" stroke="None"><path d="
M 37.00 343.00 
C 38.43 341.52 37.85 340.10 38.00 338.00
C 37.76 339.38 36.74 340.89 37.00 343.00 Z"/>
</g>
<g fill="#E54B21" fill-opacity="0.50" stroke="None"><path d="
M 36.00 349.00 
C 36.85 347.44 37.27 346.19 37.00 344.00
C 35.44 345.61 36.52 346.89 36.00 349.00 Z"/>
</g>
<g fill="#E54B21" fill-opacity="0.51" stroke="None"><path d="
M 35.00 356.00 
C 36.01 353.76 34.98 352.85 35.00 351.00
C 34.63 352.45 35.00 354.50 35.00 356.00 Z"/>
</g>
<g fill="#E96022" fill-opacity="0.44" stroke="None"><path d="
M 251.00 364.00 
C 251.75 360.69 253.38 356.77 254.00 353.00
C 251.73 355.79 251.45 360.32 251.00 364.00 Z"/>
</g>
<g fill="#E54B21" fill-opacity="0.48" stroke="None"><path d="
M 34.00 365.00 
C 34.89 362.90 35.17 360.75 35.00 358.00
C 34.11 360.10 33.83 362.25 34.00 365.00 Z"/>
</g>
<g fill="#E54B21" fill-opacity="0.51" stroke="None"><path d="
M 33.00 377.00 
C 33.64 374.08 34.00 370.60 34.00 367.00
C 32.77 369.90 33.00 373.42 33.00 377.00 Z"/>
</g>
<g fill="#E96022" fill-opacity="0.47" stroke="None"><path d="
M 249.00 376.00 
C 250.54 374.20 249.67 372.40 250.00 370.00
C 249.57 371.75 248.73 373.55 249.00 376.00 Z"/>
</g>
<g fill="#E96022" fill-opacity="0.45" stroke="None"><path d="
M 248.00 387.00 
C 250.08 385.54 249.00 379.50 249.00 377.00
C 247.08 379.60 248.36 383.64 248.00 387.00 Z"/>
</g>
<g fill="#E54B21" fill-opacity="0.24" stroke="None"><path d="
M 32.00 385.00 
C 32.04 385.16 33.00 380.86 33.00 380.00
C 32.77 381.26 31.28 382.98 32.00 385.00 Z"/>
</g>
<g fill="#E85526" fill-opacity="0.50" stroke="None"><path d="
M 32.00 421.00 
C 32.05 420.85 33.00 421.00 33.00 421.00
C 37.91 417.36 46.49 420.92 53.00 420.00 C 59.51 419.08 68.05 420.41 75.00 420.00 C 81.95 419.59 89.86 420.18 97.00 420.00 C 104.14 419.82 111.80 420.06 119.00 420.00 C 126.20 419.94 133.83 419.98 141.00 420.00 C 148.17 420.02 154.86 419.87 162.00 420.00 C 169.14 420.13 176.91 419.70 184.00 420.00 C 191.09 420.30 199.13 419.32 206.00 420.00 C 212.87 420.68 221.66 418.49 228.00 420.00 C 234.34 421.51 244.86 416.65 250.00 420.00
C 245.56 415.85 234.33 420.27 228.00 419.00 C 221.67 417.73 212.87 419.57 206.00 419.00 C 199.13 418.43 191.11 419.25 184.00 419.00 C 176.89 418.75 169.20 419.11 162.00 419.00 C 154.80 418.89 147.20 419.03 140.00 419.00 C 132.80 418.97 125.11 418.97 118.00 419.00 C 110.89 419.03 102.86 418.89 96.00 419.00 C 89.14 419.11 80.31 418.74 74.00 419.00 C 67.69 419.26 57.07 418.42 52.00 419.00 C 46.93 419.58 32.24 416.83 32.00 421.00 Z"/>
</g>
<g fill="#F38229" fill-opacity="0.99" stroke="None"><path d="
M 769.00 419.00 
C 755.03 418.93 740.96 419.09 727.00 419.00 C 713.04 418.91 698.92 419.17 685.00 419.00 C 671.08 418.83 657.94 419.38 644.00 419.00 C 630.06 418.62 616.03 419.81 602.00 419.00 C 587.97 418.19 575.25 420.84 561.00 419.00 C 546.75 417.16 548.32 434.19 544.32 444.32 C 540.32 454.45 536.92 463.46 531.31 472.31 C 525.69 481.15 520.95 489.29 513.75 496.75 C 506.55 504.21 501.58 511.57 495.00 519.00
C 534.29 580.58 574.72 641.40 614.00 703.00
C 707.79 638.88 764.48 530.42 769.00 419.00 Z"/>
</g>
<g fill="#EC5D26" fill-opacity="1.00" stroke="None"><path d="
M 33.00 421.00 
C 33.45 422.31 33.00 424.61 33.00 426.00
C 33.00 427.33 33.00 428.67 33.00 430.00
C 33.34 432.52 34.00 435.83 34.00 439.00
C 34.00 439.50 34.03 440.50 34.00 441.00
C 34.89 443.08 35.17 445.31 35.00 448.00
C 34.97 448.50 35.03 449.50 35.00 450.00
C 35.72 451.79 36.26 453.60 36.00 456.00
C 36.00 456.00 36.06 456.51 36.00 457.00
C 37.35 458.39 36.86 460.01 37.00 462.00
C 38.24 479.67 43.58 500.44 49.22 516.78 C 54.86 533.11 59.64 549.78 69.00 564.00
C 70.88 566.86 72.24 570.84 73.00 573.00
C 76.88 580.58 80.99 588.27 86.00 595.00
C 94.94 607.02 103.61 620.06 112.75 632.25 C 121.89 644.44 134.27 654.47 143.00 667.00
C 143.16 667.23 144.00 667.00 144.00 667.00
C 150.22 670.04 157.49 679.07 162.00 684.00
C 169.44 691.10 178.01 698.20 187.00 703.00
C 187.68 701.12 188.91 699.68 190.00 698.00
C 192.27 693.39 195.98 686.85 200.00 682.00
C 201.22 680.16 202.68 677.99 204.00 676.00
C 206.36 671.38 208.75 665.32 213.00 662.00
C 213.29 661.78 213.79 661.30 214.00 661.00
C 213.76 656.96 220.89 648.58 224.00 645.00
C 225.03 643.81 226.03 642.47 227.00 641.00
C 237.51 620.23 254.06 598.90 267.00 578.00
C 268.54 575.51 270.49 573.23 272.00 571.00
C 273.87 568.25 276.14 564.75 278.00 562.00
C 282.30 555.67 286.69 548.35 291.00 542.00
C 293.96 537.65 297.04 532.36 300.00 528.00
C 300.77 526.87 303.59 523.07 304.00 522.00
C 305.49 518.10 298.57 510.12 296.00 507.00
C 292.34 502.55 287.75 498.35 284.00 494.00
C 279.59 489.08 275.60 483.58 272.00 478.00
C 270.91 476.31 270.04 474.68 269.00 473.00
C 267.10 469.94 265.76 466.17 265.00 464.00
C 263.30 460.68 261.48 457.43 260.00 454.00
C 258.06 450.67 257.57 447.75 257.00 445.00
C 255.73 441.29 254.47 436.51 252.98 433.02 C 251.49 429.54 252.75 422.57 250.00 420.00
C 244.86 416.65 234.34 421.51 228.00 420.00 C 221.66 418.49 212.87 420.68 206.00 420.00 C 199.13 419.32 191.09 420.30 184.00 420.00 C 176.91 419.70 169.14 420.13 162.00 420.00 C 154.86 419.87 148.17 420.02 141.00 420.00 C 133.83 419.98 126.20 419.94 119.00 420.00 C 111.80 420.06 104.14 419.82 97.00 420.00 C 89.86 420.18 81.95 419.59 75.00 420.00 C 68.05 420.41 59.51 419.08 53.00 420.00 C 46.49 420.92 37.91 417.36 33.00 421.00 Z"/>
</g>
<g fill="#E54B21" fill-opacity="0.25" stroke="None"><path d="
M 33.00 426.00 
C 33.00 424.61 33.45 422.31 33.00 421.00
C 33.00 421.00 32.05 420.85 32.00 421.00
C 31.37 422.96 32.83 424.76 33.00 426.00 Z"/>
</g>
<g fill="#E54B21" fill-opacity="0.49" stroke="None"><path d="
M 34.00 439.00 
C 34.00 435.83 33.34 432.52 33.00 430.00
C 33.00 433.27 32.87 436.34 34.00 439.00 Z"/>
</g>
<g fill="#E54B21" fill-opacity="0.52" stroke="None"><path d="
M 35.00 448.00 
C 35.17 445.31 34.89 443.08 34.00 441.00
C 33.83 443.69 34.11 445.92 35.00 448.00 Z"/>
</g>
<g fill="#EF6628" fill-opacity="0.45" stroke="None"><path d="
M 260.00 454.00 
C 258.76 451.12 258.01 447.94 257.00 445.00
C 257.57 447.75 258.06 450.67 260.00 454.00 Z"/>
</g>
<g fill="#E54B21" fill-opacity="0.46" stroke="None"><path d="
M 36.00 456.00 
C 36.26 453.60 35.72 451.79 35.00 450.00
C 34.87 452.16 34.71 454.48 36.00 456.00 Z"/>
</g>
<g fill="#E54B21" fill-opacity="0.54" stroke="None"><path d="
M 37.00 462.00 
C 36.86 460.01 37.35 458.39 36.00 457.00
C 35.75 459.05 36.76 460.63 37.00 462.00 Z"/>
</g>
<g fill="#EF6628" fill-opacity="0.39" stroke="None"><path d="
M 269.00 473.00 
C 269.22 473.25 270.00 473.00 270.00 473.00
C 268.16 470.03 266.60 467.13 265.00 464.00
C 265.76 466.17 267.10 469.94 269.00 473.00 Z"/>
</g>
<g fill="#E86622" fill-opacity="0.40" stroke="None"><path d="
M 272.00 478.00 
C 272.22 478.25 273.00 478.00 273.00 478.00
C 271.94 476.35 271.03 474.67 270.00 473.00
C 270.00 473.00 269.22 473.25 269.00 473.00
C 270.04 474.68 270.91 476.31 272.00 478.00 Z"/>
</g>
<g fill="#EF6628" fill-opacity="0.42" stroke="None"><path d="
M 284.00 494.00 
C 284.22 494.25 285.00 494.00 285.00 494.00
C 280.60 488.85 276.64 483.64 273.00 478.00
C 273.00 478.00 272.22 478.25 272.00 478.00
C 275.60 483.58 279.59 489.08 284.00 494.00 Z"/>
</g>
<g fill="#E86622" fill-opacity="0.50" stroke="None"><path d="
M 296.00 507.00 
C 292.45 502.68 288.73 498.37 285.00 494.00
C 285.00 494.00 284.22 494.25 284.00 494.00
C 287.75 498.35 292.34 502.55 296.00 507.00 Z"/>
</g>
<g fill="#E86622" fill-opacity="0.41" stroke="None"><path d="
M 304.00 522.00 
C 306.73 516.48 299.80 511.62 296.00 507.00
C 298.57 510.12 305.49 518.10 304.00 522.00 Z"/>
</g>
<g fill="#EF6628" fill-opacity="0.41" stroke="None"><path d="
M 300.00 528.00 
C 301.27 526.09 302.88 524.27 304.00 522.00
C 303.59 523.07 300.77 526.87 300.00 528.00 Z"/>
</g>
<g fill="#E86622" fill-opacity="0.44" stroke="None"><path d="
M 291.00 542.00 
C 293.97 537.54 296.94 532.60 300.00 528.00
C 297.04 532.36 293.96 537.65 291.00 542.00 Z"/>
</g>
<g fill="#E86622" fill-opacity="0.44" stroke="None"><path d="
M 278.00 562.00 
C 282.29 555.55 286.60 548.61 291.00 542.00
C 286.69 548.35 282.30 555.67 278.00 562.00 Z"/>
</g>
<g fill="#E86622" fill-opacity="0.99" stroke="None"><path d="
M 280.00 618.00 
C 279.53 618.95 278.48 621.29 277.00 623.00
C 275.96 624.19 274.97 625.53 274.00 627.00
C 273.17 628.75 272.66 631.92 270.00 634.00
C 269.71 634.22 269.21 634.70 269.00 635.00
C 269.19 638.13 264.12 643.57 262.00 647.00
C 259.06 651.74 256.02 656.31 253.00 661.00
C 246.67 670.80 240.62 681.40 233.75 690.75 C 226.87 700.10 222.31 712.05 214.00 720.00
C 214.00 720.00 213.75 720.72 214.00 721.00
C 220.70 722.36 226.85 727.87 233.08 730.92 C 239.30 733.98 247.65 736.70 253.00 741.00
C 253.00 741.00 253.53 740.89 254.00 741.00
C 259.69 742.34 266.05 745.41 271.00 748.00
C 273.09 749.09 275.61 750.09 278.00 751.00
C 279.28 751.31 281.29 752.18 283.00 753.00
C 307.51 761.65 334.88 767.82 361.00 770.00
C 362.64 770.02 365.14 769.66 367.00 770.00
C 371.25 770.35 375.44 771.00 380.00 771.00
C 377.04 770.68 372.66 769.16 369.00 770.00
C 369.00 742.33 369.00 714.67 369.00 687.00
C 367.15 686.81 365.79 686.44 364.00 686.00
C 362.46 685.79 361.12 686.29 359.00 685.00
C 357.98 684.56 356.00 682.81 355.00 682.00
C 353.35 681.09 351.84 679.56 351.00 678.00
C 349.47 676.11 344.55 667.27 346.00 665.00
C 347.65 662.42 353.91 664.42 357.00 664.00 C 360.09 663.58 365.68 664.00 369.00 664.00
C 369.00 658.67 369.00 653.33 369.00 648.00
C 360.05 648.00 349.05 649.28 341.00 647.00
C 325.39 642.58 326.43 624.05 341.00 619.00
C 348.74 616.32 360.33 618.00 369.00 618.00
C 369.00 612.67 369.00 607.33 369.00 602.00
C 361.88 599.45 343.29 606.72 339.99 599.01 C 336.69 591.29 336.87 581.30 333.32 573.68 C 329.77 566.05 328.57 558.49 325.00 551.00
C 308.93 571.34 294.51 595.52 280.00 618.00 Z"/>
</g>
<g fill="#F38229" fill-opacity="0.45" stroke="None"><path d="
M 475.00 555.00 
C 475.75 554.22 477.10 553.54 478.00 553.00
C 484.62 563.01 490.46 573.88 498.00 583.00
C 491.97 571.94 483.91 562.15 478.00 551.00
C 476.20 551.51 475.78 553.56 475.00 555.00 Z"/>
</g>
<g fill="#E67720" fill-opacity="1.00" stroke="None"><path d="
M 475.00 555.00 
C 471.53 561.45 469.63 566.40 467.78 573.78 C 465.92 581.15 462.23 583.98 461.99 592.99 C 461.76 602.00 453.99 603.17 445.00 602.00 C 436.01 600.83 428.72 602.49 420.00 602.00 C 411.28 601.51 402.60 602.20 394.00 602.00 C 385.40 601.80 377.53 602.00 369.00 602.00
C 369.00 607.33 369.00 612.67 369.00 618.00
C 383.03 618.00 398.07 617.12 412.00 618.00 C 425.93 618.88 442.19 615.27 455.00 619.00
C 457.33 619.68 459.90 620.72 462.00 622.00
C 464.74 623.68 466.45 625.92 467.00 629.00
C 468.74 638.69 463.64 644.86 455.00 647.00
C 441.96 650.23 427.09 647.36 413.00 648.00 C 398.91 648.64 383.23 648.00 369.00 648.00
C 369.00 653.33 369.00 658.67 369.00 664.00
C 375.48 664.00 382.58 663.80 389.00 664.00 C 395.42 664.20 403.89 663.49 410.00 664.00 C 416.11 664.51 424.79 662.78 430.00 664.00 C 435.21 665.22 447.27 660.93 450.00 665.00
C 453.10 669.62 446.22 678.17 441.75 681.75 C 437.29 685.33 428.30 687.89 421.00 687.00 C 413.70 686.11 402.93 687.64 395.00 687.00 C 387.07 686.36 377.08 687.82 369.00 687.00
C 369.00 714.67 369.00 742.33 369.00 770.00
C 372.66 769.16 377.04 770.68 380.00 771.00
C 381.67 771.00 383.33 771.00 385.00 771.00
C 395.33 771.00 405.67 771.00 416.00 771.00
C 438.21 771.00 458.98 767.28 480.00 763.00
C 485.91 761.08 492.50 759.03 499.00 758.00
C 502.00 757.52 504.17 756.79 507.00 756.00
C 508.73 755.32 511.00 755.21 512.00 755.00
C 515.43 753.96 519.00 752.40 522.00 751.00
C 523.54 750.28 525.10 749.50 527.00 749.00
C 531.00 747.95 534.54 746.89 538.00 745.00
C 540.82 743.46 543.72 742.01 547.00 741.00
C 549.19 740.33 550.16 740.11 552.00 739.00
C 558.05 735.36 572.87 725.66 579.00 726.00
C 579.33 725.83 579.77 725.28 580.00 725.00
C 581.08 723.70 584.78 720.60 586.00 722.00
C 587.54 719.52 586.16 719.23 585.00 717.00
C 581.62 711.88 577.23 705.40 575.00 701.00
C 574.10 699.63 573.00 698.15 572.00 697.00
C 567.84 692.22 564.25 685.44 562.00 681.00
C 561.10 679.63 560.00 678.15 559.00 677.00
C 554.89 672.28 551.21 665.37 549.00 661.00
C 548.10 659.63 547.00 658.15 546.00 657.00
C 541.89 652.28 538.22 645.37 536.00 641.00
C 535.10 639.63 534.00 638.15 533.00 637.00
C 529.84 633.36 522.76 624.96 523.00 621.00
C 522.79 620.70 522.29 620.23 522.00 620.00
C 517.22 616.27 514.02 608.00 512.00 604.00
C 511.10 602.63 510.00 601.15 509.00 600.00
C 505.84 596.36 498.76 587.96 499.00 584.00
C 498.79 583.70 498.29 583.23 498.00 583.00
C 490.46 573.88 484.62 563.01 478.00 553.00
C 477.10 553.54 475.75 554.22 475.00 555.00 Z"/>
</g>
<g fill="#EF6628" fill-opacity="0.45" stroke="None"><path d="
M 272.00 571.00 
C 273.71 568.17 276.05 564.92 278.00 562.00
C 276.14 564.75 273.87 568.25 272.00 571.00 Z"/>
</g>
<g fill="#E54B21" fill-opacity="0.51" stroke="None"><path d="
M 73.00 573.00 
C 72.24 570.84 70.88 566.86 69.00 564.00
C 70.42 566.87 71.49 570.05 73.00 573.00 Z"/>
</g>
<g fill="#E86622" fill-opacity="0.46" stroke="None"><path d="
M 267.00 578.00 
C 267.22 577.75 268.00 578.00 268.00 578.00
C 269.46 575.73 270.69 573.16 272.00 571.00
C 270.49 573.23 268.54 575.51 267.00 578.00 Z"/>
</g>
<g fill="#E96022" fill-opacity="0.43" stroke="None"><path d="
M 227.00 641.00 
C 240.77 620.04 254.39 599.10 268.00 578.00
C 268.00 578.00 267.22 577.75 267.00 578.00
C 254.06 598.90 237.51 620.23 227.00 641.00 Z"/>
</g>
<g fill="#F38229" fill-opacity="0.44" stroke="None"><path d="
M 509.00 600.00 
C 505.40 594.86 502.66 589.20 499.00 584.00
C 498.76 587.96 505.84 596.36 509.00 600.00 Z"/>
</g>
<g fill="#E85526" fill-opacity="0.40" stroke="None"><path d="
M 143.00 667.00 
C 134.27 654.47 121.89 644.44 112.75 632.25 C 103.61 620.06 94.94 607.02 86.00 595.00
C 101.90 621.22 120.66 644.66 143.00 667.00 Z"/>
</g>
<g fill="#F38229" fill-opacity="0.45" stroke="None"><path d="
M 522.00 620.00 
C 518.62 614.67 515.50 609.32 512.00 604.00
C 514.02 608.00 517.22 616.27 522.00 620.00 Z"/>
</g>
<g fill="#EF6628" fill-opacity="0.50" stroke="None"><path d="
M 277.00 623.00 
C 278.48 621.29 279.53 618.95 280.00 618.00
C 278.96 619.61 278.10 621.43 277.00 623.00 Z"/>
</g>
<g fill="#EC7321" fill-opacity="0.75" stroke="None"><path d="
M 341.00 619.00 
C 353.01 616.56 366.70 619.75 379.00 619.00 C 391.30 618.25 404.66 618.56 417.00 619.00 C 429.34 619.44 442.83 617.06 455.00 619.00
C 442.19 615.27 425.93 618.88 412.00 618.00 C 398.07 617.12 383.03 618.00 369.00 618.00
C 360.33 618.00 348.74 616.32 341.00 619.00 Z"/>
</g>
<g fill="#000000" fill-opacity="0.00" stroke="None"><path d="
M 341.00 647.00 
C 359.15 649.77 379.60 646.81 398.00 647.00 C 416.40 647.19 436.75 649.26 455.00 647.00
C 463.64 644.86 468.74 638.69 467.00 629.00
C 466.62 627.47 463.42 623.11 462.00 622.00
C 459.90 620.72 457.33 619.68 455.00 619.00
C 442.83 617.06 429.34 619.44 417.00 619.00 C 404.66 618.56 391.30 618.25 379.00 619.00 C 366.70 619.75 353.01 616.56 341.00 619.00
C 326.43 624.05 325.39 642.58 341.00 647.00 Z"/>
</g>
<g fill="#F38229" fill-opacity="0.44" stroke="None"><path d="
M 533.00 637.00 
C 529.55 631.74 526.67 626.21 523.00 621.00
C 522.76 624.96 529.84 633.36 533.00 637.00 Z"/>
</g>
<g fill="#F38229" fill-opacity="0.25" stroke="None"><path d="
M 467.00 629.00 
C 466.45 625.92 464.74 623.68 462.00 622.00
C 463.42 623.11 466.62 627.47 467.00 629.00 Z"/>
</g>
<g fill="#E86622" fill-opacity="0.50" stroke="None"><path d="
M 270.00 634.00 
C 272.66 631.92 273.17 628.75 274.00 627.00
C 272.51 629.27 271.48 631.75 270.00 634.00 Z"/>
</g>
<g fill="#E96022" fill-opacity="0.42" stroke="None"><path d="
M 261.00 647.00 
C 261.22 646.75 262.00 647.00 262.00 647.00
C 264.12 643.57 269.19 638.13 269.00 635.00
C 266.23 638.94 263.63 642.93 261.00 647.00 Z"/>
</g>
<g fill="#F38229" fill-opacity="0.45" stroke="None"><path d="
M 546.00 657.00 
C 542.42 651.89 539.47 646.28 536.00 641.00
C 538.22 645.37 541.89 652.28 546.00 657.00 Z"/>
</g>
<g fill="#E96022" fill-opacity="0.46" stroke="None"><path d="
M 214.00 661.00 
C 217.65 655.83 220.39 650.15 224.00 645.00
C 220.89 648.58 213.76 656.96 214.00 661.00 Z"/>
</g>
<g fill="#EF6628" fill-opacity="0.46" stroke="None"><path d="
M 252.00 661.00 
C 252.22 660.75 253.00 661.00 253.00 661.00
C 256.02 656.31 259.06 651.74 262.00 647.00
C 262.00 647.00 261.22 646.75 261.00 647.00
C 257.98 651.68 255.04 656.28 252.00 661.00 Z"/>
</g>
<g fill="#EC7321" fill-opacity="0.25" stroke="None"><path d="
M 369.00 648.00 
C 383.23 648.00 398.91 648.64 413.00 648.00 C 427.09 647.36 441.96 650.23 455.00 647.00
C 436.75 649.26 416.40 647.19 398.00 647.00 C 379.60 646.81 359.15 649.77 341.00 647.00
C 349.05 649.28 360.05 648.00 369.00 648.00 Z"/>
</g>
<g fill="#E96022" fill-opacity="0.43" stroke="None"><path d="
M 214.00 720.00 
C 222.31 712.05 226.87 700.10 233.75 690.75 C 240.62 681.40 246.67 670.80 253.00 661.00
C 253.00 661.00 252.22 660.75 252.00 661.00
C 245.73 670.72 238.31 680.73 232.77 690.77 C 227.23 700.81 217.89 709.23 214.00 720.00 Z"/>
</g>
<g fill="#F38229" fill-opacity="0.44" stroke="None"><path d="
M 559.00 677.00 
C 555.42 671.89 552.47 666.28 549.00 661.00
C 551.21 665.37 554.89 672.28 559.00 677.00 Z"/>
</g>
<g fill="#E96022" fill-opacity="0.44" stroke="None"><path d="
M 204.00 676.00 
C 206.98 671.52 210.02 666.70 213.00 662.00
C 208.75 665.32 206.36 671.38 204.00 676.00 Z"/>
</g>
<g fill="#EC7321" fill-opacity="0.50" stroke="None"><path d="
M 346.00 665.00 
C 380.67 665.00 415.33 665.00 450.00 665.00
C 447.27 660.93 435.21 665.22 430.00 664.00 C 424.79 662.78 416.11 664.51 410.00 664.00 C 403.89 663.49 395.42 664.20 389.00 664.00 C 382.58 663.80 375.48 664.00 369.00 664.00
C 365.68 664.00 360.09 663.58 357.00 664.00 C 353.91 664.42 347.65 662.42 346.00 665.00 Z"/>
</g>
<g fill="#000000" fill-opacity="0.00" stroke="None"><path d="
M 351.00 678.00 
C 352.17 679.46 353.57 680.84 355.00 682.00
C 356.00 682.81 357.98 684.56 359.00 685.00
C 360.31 685.56 362.53 685.64 364.00 686.00
C 365.79 686.44 367.15 686.81 369.00 687.00
C 377.08 687.82 387.07 686.36 395.00 687.00 C 402.93 687.64 413.70 686.11 421.00 687.00 C 428.30 687.89 437.29 685.33 441.75 681.75 C 446.22 678.17 453.10 669.62 450.00 665.00
C 415.33 665.00 380.67 665.00 346.00 665.00
C 344.55 667.27 349.47 676.11 351.00 678.00 Z"/>
</g>
<g fill="#E96022" fill-opacity="0.06" stroke="None"><path d="
M 148.00 672.00 
C 146.59 670.59 145.12 668.60 144.00 667.00
C 144.00 667.00 143.16 667.23 143.00 667.00
C 144.62 668.62 146.18 670.44 148.00 672.00 Z"/>
</g>
<g fill="#E85526" fill-opacity="0.54" stroke="None"><path d="
M 148.00 672.00 
C 152.63 675.96 157.33 680.20 162.00 684.00
C 157.49 679.07 150.22 670.04 144.00 667.00
C 145.12 668.60 146.59 670.59 148.00 672.00 Z"/>
</g>
<g fill="#E97024" fill-opacity="0.52" stroke="None"><path d="
M 355.00 682.00 
C 353.57 680.84 352.17 679.46 351.00 678.00
C 351.84 679.56 353.35 681.09 355.00 682.00 Z"/>
</g>
<g fill="#F38229" fill-opacity="0.46" stroke="None"><path d="
M 572.00 697.00 
C 568.42 691.89 565.47 686.28 562.00 681.00
C 564.25 685.44 567.84 692.22 572.00 697.00 Z"/>
</g>
<g fill="#E96022" fill-opacity="0.46" stroke="None"><path d="
M 190.00 698.00 
C 193.42 692.70 196.52 687.23 200.00 682.00
C 195.98 686.85 192.27 693.39 190.00 698.00 Z"/>
</g>
<g fill="#E97024" fill-opacity="0.51" stroke="None"><path d="
M 364.00 686.00 
C 362.53 685.64 360.31 685.56 359.00 685.00
C 361.12 686.29 362.46 685.79 364.00 686.00 Z"/>
</g>
<g fill="#F38229" fill-opacity="0.45" stroke="None"><path d="
M 585.00 717.00 
C 582.09 711.39 578.49 706.31 575.00 701.00
C 577.23 705.40 581.62 711.88 585.00 717.00 Z"/>
</g>
<g fill="#E96022" fill-opacity="0.42" stroke="None"><path d="
M 253.00 741.00 
C 247.65 736.70 239.30 733.98 233.08 730.92 C 226.85 727.87 220.70 722.36 214.00 721.00
C 218.27 725.78 227.25 728.74 232.92 732.08 C 238.60 735.41 246.63 739.51 253.00 741.00 Z"/>
</g>
<g fill="#F38229" fill-opacity="0.45" stroke="None"><path d="
M 580.00 725.00 
C 581.34 724.34 585.13 723.41 586.00 722.00
C 584.78 720.60 581.08 723.70 580.00 725.00 Z"/>
</g>
<g fill="#F38229" fill-opacity="0.45" stroke="None"><path d="
M 552.00 739.00 
C 561.14 734.87 569.99 730.67 579.00 726.00
C 572.87 725.66 558.05 735.36 552.00 739.00 Z"/>
</g>
<g fill="#EF6628" fill-opacity="0.50" stroke="None"><path d="
M 271.00 748.00 
C 266.05 745.41 259.69 742.34 254.00 741.00
C 258.76 744.83 265.40 745.80 271.00 748.00 Z"/>
</g>
<g fill="#F38229" fill-opacity="0.50" stroke="None"><path d="
M 538.00 745.00 
C 541.02 743.77 544.19 742.21 547.00 741.00
C 543.72 742.01 540.82 743.46 538.00 745.00 Z"/>
</g>
<g fill="#F38229" fill-opacity="0.44" stroke="None"><path d="
M 522.00 751.00 
C 523.71 750.41 525.54 749.55 527.00 749.00
C 525.10 749.50 523.54 750.28 522.00 751.00 Z"/>
</g>
<g fill="#EF6628" fill-opacity="0.45" stroke="None"><path d="
M 278.00 751.00 
C 279.71 751.65 281.29 752.39 283.00 753.00
C 281.29 752.18 279.28 751.31 278.00 751.00 Z"/>
</g>
<g fill="#F38229" fill-opacity="0.44" stroke="None"><path d="
M 507.00 756.00 
C 508.66 755.54 510.38 755.49 512.00 755.00
C 511.00 755.21 508.73 755.32 507.00 756.00 Z"/>
</g>
<g fill="#F38229" fill-opacity="0.47" stroke="None"><path d="
M 480.00 763.00 
C 486.56 761.66 492.94 759.67 499.00 758.00
C 492.50 759.03 485.91 761.08 480.00 763.00 Z"/>
</g>
<g fill="#E97024" fill-opacity="0.65" stroke="None"><path d="
M 361.00 770.00 
C 362.99 770.17 365.02 769.83 367.00 770.00
C 365.14 769.66 362.64 770.02 361.00 770.00 Z"/>
</g>
<g fill="#EC7321" fill-opacity="0.34" stroke="None"><path d="
M 416.00 771.00 
C 405.67 771.00 395.33 771.00 385.00 771.00
C 394.67 772.03 406.26 771.94 416.00 771.00 Z"/>
</g>
</svg>