<?xml version="1.0" encoding="utf-8"?>
<!-- Generator: Adobe Illustrator 27.1.1, SVG Export Plug-In . SVG Version: 6.00 Build 0)  -->
<svg version="1.1" id="Layer_1" xmlns="http://www.w3.org/2000/svg" xmlns:xlink="http://www.w3.org/1999/xlink" x="0px"
     y="0px"
     viewBox="0 0 100 100" style="enable-background:new 0 0 100 100;" xml:space="preserve">
<style type="text/css">
	.st0{fill:url(#SVGID_1_);}
</style>
    <g id="Layer_2_00000093169961140042881160000006510974417601465473_">
</g>
    <linearGradient id="SVGID_1_" gradientUnits="userSpaceOnUse" x1="0" y1="-237.9438" x2="100" y2="-237.9438"
                    gradientTransform="matrix(1 0 0 1 0 288)">
	<stop offset="0" style="stop-color:#F04E23"/>
        <stop offset="0.63" style="stop-color:#FF7900"/>
</linearGradient>
    <path class="st0" d="M40.1,30.7L24.6,6.9C32.1,2.5,40.7,0,50,0s17.9,2.5,25.3,6.9L59.9,30.7c-3.4-1.8-7.3-2.7-11.4-2.4
	C45.5,28.5,42.6,29.3,40.1,30.7z M70.7,47.8H100C99.3,31.9,91.2,18,79.1,9.3L63.6,33.3C67.7,36.8,70.4,42,70.7,47.8z M29.3,47.6
	c0.4-5.7,3.1-10.8,7.1-14.3L20.9,9.3C8.8,18,0.7,31.9,0,47.8h29.3C29.3,47.7,29.3,47.7,29.3,47.6z M34.7,63
	c-2.7-2.9-4.5-6.6-5.2-10.7H0c0.7,15.8,8.8,29.8,20.9,38.4L37,65.9C36.3,64.9,35.5,63.9,34.7,63z M65.4,62.9c-0.9,0.9-1.7,1.9-2.4,3
	l16.2,24.9c12.1-8.7,20.2-22.6,20.9-38.4H70.5C69.8,56.4,68,60,65.4,62.9z M60.4,70.3l14.9,23c-7.4,4.4-16.1,6.9-25.3,6.9
	s-17.9-2.5-25.3-6.9l14.9-23c0.8,1.6,1.4,3.4,1.8,5.1l0.4,1.7h16.4l0.4-1.5C59,73.7,59.6,71.9,60.4,70.3z M57.1,85.6H42.8
	c0,1.7,1.4,3.1,3.1,3.1H54c0.9,0,1.6-0.4,2.2-0.9C56.8,87.2,57.1,86.4,57.1,85.6z M59.4,81.3c0-1.1-0.9-2-2-2H42.5c-1.1,0-2,0.9-2,2
	c0,1.1,0.9,2,2,2h14.9C58.6,83.3,59.4,82.5,59.4,81.3z"/>
</svg>
